<?xml version="1.0" standalone="no"?>
<!DOCTYPE svg PUBLIC "-//W3C//DTD SVG 20010904//EN"
 "http://www.w3.org/TR/2001/REC-SVG-20010904/DTD/svg10.dtd">
<svg version="1.0" xmlns="http://www.w3.org/2000/svg"
 width="1062.000000pt" height="964.000000pt" viewBox="0 0 1062.000000 964.000000"
 preserveAspectRatio="xMidYMid meet">

<g transform="translate(0.000000,964.000000) scale(0.100000,-0.100000)"
fill="#000000" stroke="none">
<path d="M4509 8679 c-229 -24 -695 -150 -1024 -276 -308 -118 -536 -240 -840
-449 -203 -140 -338 -249 -505 -410 -343 -333 -571 -642 -817 -1109 -143 -272
-273 -572 -273 -632 0 -41 14 -19 63 103 52 128 218 462 319 644 71 128 258
415 359 550 91 124 276 323 460 496 154 144 377 310 674 499 101 64 392 209
533 264 238 93 565 193 822 250 101 23 347 61 392 61 15 0 30 5 33 10 7 12
-82 11 -196 -1z"/>
<path d="M5705 8679 c-4 -6 -5 -12 -4 -13 2 -2 64 -16 137 -30 73 -15 159 -36
190 -47 31 -11 118 -35 192 -55 381 -99 516 -140 665 -199 97 -39 386 -186
465 -236 172 -110 212 -137 300 -203 52 -38 106 -80 120 -92 14 -12 77 -66
140 -120 136 -115 294 -272 369 -366 154 -192 397 -569 549 -850 150 -277 308
-580 316 -605 10 -30 36 -30 36 0 0 26 -100 233 -220 457 -328 611 -622 1036
-887 1276 -352 321 -660 535 -998 694 -237 113 -315 138 -825 276 -379 102
-533 134 -545 113z"/>
<path d="M4850 8574 c-349 -30 -528 -60 -802 -134 -441 -118 -885 -304 -1150
-481 -306 -205 -442 -311 -606 -471 -509 -496 -976 -1232 -1097 -1727 -85
-348 -90 -389 -106 -881 -12 -384 -8 -597 16 -820 24 -229 68 -555 76 -564 4
-4 11 0 17 10 6 13 -1 101 -24 274 -56 440 -68 666 -55 1010 22 545 25 576 77
825 73 347 187 605 441 1005 204 320 531 708 820 971 49 45 241 188 348 259
44 29 93 62 110 74 179 122 291 178 605 302 381 151 733 243 1100 289 207 25
578 39 745 26 240 -17 532 -75 792 -156 81 -26 229 -71 328 -102 258 -78 507
-176 655 -255 92 -50 250 -156 390 -262 58 -44 152 -115 210 -159 130 -98 164
-130 253 -237 40 -47 139 -155 221 -240 180 -188 245 -271 360 -460 49 -80
121 -194 161 -255 98 -150 188 -313 229 -416 32 -80 104 -352 140 -529 37
-184 57 -372 64 -594 6 -196 9 -231 22 -231 13 0 15 26 13 180 -5 322 -36 550
-123 905 -81 324 -128 432 -316 710 -28 41 -95 147 -149 235 -53 88 -116 185
-138 215 -47 63 -182 214 -308 345 -47 50 -117 126 -154 170 -90 107 -106 120
-350 304 -391 293 -448 331 -613 406 -134 61 -348 141 -472 178 -113 34 -415
124 -515 154 -106 32 -357 89 -481 109 -95 15 -616 28 -734 18z"/>
<path d="M4767 8480 c-366 -27 -748 -121 -1207 -298 -289 -111 -349 -138 -480
-219 -113 -70 -162 -102 -343 -233 -64 -47 -162 -116 -216 -155 -54 -38 -127
-101 -163 -140 -134 -147 -224 -254 -255 -306 -18 -30 -86 -124 -153 -209
-142 -183 -266 -362 -332 -479 l-47 -84 96 -58 c53 -31 101 -55 107 -53 6 3
23 21 37 42 l27 37 -37 20 c-48 27 -47 49 2 53 30 3 37 7 37 25 0 16 -3 18
-11 10 -9 -9 -18 -8 -35 4 -23 14 -24 14 -34 -11 -5 -14 -14 -26 -20 -26 -19
0 -70 30 -70 41 0 6 18 42 40 80 l41 69 42 -26 c23 -15 63 -42 88 -60 26 -19
52 -34 58 -34 25 0 8 22 -51 68 -114 87 -111 84 -93 109 l16 23 69 -46 c38
-25 71 -53 74 -60 4 -12 16 -8 50 18 41 30 59 58 37 58 -5 0 -16 11 -25 25
-16 24 -16 27 1 49 10 14 26 27 35 29 21 6 24 37 5 37 -7 0 -28 11 -47 25 -50
37 -61 30 -16 -10 l39 -35 -23 -25 -23 -25 -34 21 c-54 34 -52 12 4 -42 47
-44 50 -50 33 -59 -10 -6 -27 -10 -36 -10 -21 0 -124 60 -124 73 0 4 9 18 21
30 12 12 39 49 62 82 22 33 73 101 112 150 40 50 84 111 99 137 31 53 56 79
56 56 0 -20 79 -78 107 -78 13 0 29 -10 39 -26 l17 -25 26 29 c73 81 141 161
141 166 0 10 -64 46 -82 46 -27 0 -21 -17 12 -37 36 -21 37 -30 5 -65 -30 -35
-45 -35 -86 -1 l-32 27 32 8 c17 5 31 13 31 19 0 6 -9 8 -20 4 -11 -3 -20 -2
-20 4 0 13 29 41 42 41 6 0 26 14 45 30 41 37 47 37 90 4 l34 -26 22 20 c12
11 32 25 45 31 12 6 22 17 22 24 0 17 152 125 323 230 511 314 673 388 1197
545 254 76 339 93 600 117 389 35 777 11 1115 -70 217 -53 817 -256 950 -322
61 -31 261 -148 370 -216 44 -28 98 -62 120 -75 37 -23 140 -100 334 -246 41
-31 76 -56 78 -56 1 0 3 6 3 14 0 39 -470 387 -649 481 -53 28 -128 70 -168
93 -84 49 -178 87 -451 181 -618 215 -868 264 -1352 264 -445 0 -748 -52
-1208 -207 -232 -78 -343 -125 -542 -228 -295 -153 -558 -316 -683 -423 l-61
-53 -66 61 -66 61 70 56 c412 327 649 467 1006 596 631 227 923 289 1410 301
300 7 486 -6 738 -52 205 -37 358 -82 806 -234 573 -195 583 -200 986 -501
276 -206 333 -254 410 -352 41 -51 98 -122 127 -157 l54 -63 -53 -32 c-29 -17
-59 -43 -67 -57 -13 -24 -12 -31 8 -83 13 -31 27 -56 32 -56 29 0 129 75 129
97 0 19 -11 16 -50 -17 -38 -33 -61 -37 -80 -15 -20 24 -3 60 48 104 l49 40
48 -49 48 -49 -24 -30 c-13 -16 -32 -42 -43 -56 -10 -15 -32 -35 -49 -45 l-30
-19 34 -8 c45 -12 93 -75 120 -161 23 -72 38 -232 22 -232 -5 0 -31 34 -57 75
-128 202 -417 548 -596 712 -156 144 -218 192 -427 332 -84 56 -153 108 -153
115 0 8 -7 20 -17 27 -15 13 -16 11 -11 -13 3 -16 4 -28 2 -28 -2 0 -25 13
-51 29 -85 52 -601 247 -819 309 -313 90 -544 126 -910 144 -389 18 -612 -1
-915 -77 -381 -96 -751 -258 -1204 -528 -180 -106 -229 -142 -400 -287 -188
-160 -255 -230 -425 -445 -215 -273 -248 -322 -418 -610 -178 -303 -314 -636
-371 -905 -62 -298 -121 -820 -92 -820 15 0 19 22 36 200 28 287 90 628 150
832 38 127 157 408 232 548 151 280 277 468 514 765 141 177 226 264 434 444
207 180 410 307 756 475 410 199 774 317 1119 362 160 21 705 14 900 -10 377
-48 687 -136 1185 -336 464 -187 798 -432 1135 -835 203 -242 402 -525 413
-585 7 -35 37 -108 64 -155 135 -232 292 -653 357 -955 49 -229 80 -510 56
-510 -19 0 -10 -28 10 -33 19 -5 20 -14 20 -148 0 -79 -4 -139 -8 -133 -5 5
-26 34 -47 64 -45 64 -184 210 -199 210 -14 0 -156 148 -156 163 0 7 -33 57
-73 112 -60 81 -92 114 -174 176 -55 42 -105 78 -112 80 -7 3 -16 37 -22 84
-20 159 -57 250 -123 300 -19 15 -65 39 -103 55 l-68 29 -5 93 c-3 51 -10 102
-17 113 -39 67 -236 196 -330 215 -57 12 -73 19 -143 65 -25 16 -81 43 -125
60 -126 50 -126 50 -119 93 7 45 -18 203 -52 332 -52 197 -188 494 -286 625
-98 130 -264 291 -378 367 -58 39 -107 72 -110 75 -11 11 89 -11 155 -34 91
-32 483 -226 603 -298 93 -56 135 -66 77 -19 -88 73 -444 264 -619 333 -133
54 -715 223 -830 242 -56 10 -99 10 -178 2 -57 -6 -202 -11 -323 -12 -125 -1
-268 -8 -330 -16 -292 -39 -752 -180 -1009 -309 -236 -119 -344 -196 -539
-385 -330 -321 -550 -616 -860 -1158 -48 -83 -117 -196 -153 -250 -78 -118
-159 -279 -214 -428 -48 -129 -90 -283 -90 -330 0 -25 -14 -50 -53 -101 -84
-108 -260 -374 -281 -424 -21 -52 -38 -87 -72 -150 -27 -50 -31 -115 -14 -228
6 -37 19 -128 30 -202 31 -217 85 -461 113 -517 l26 -50 -57 -6 c-40 -4 -89
-22 -171 -62 -63 -31 -117 -52 -121 -48 -4 4 -15 29 -24 56 -10 26 -22 47 -27
47 -5 0 -9 12 -9 28 0 43 -25 125 -39 130 -14 5 -7 -46 15 -110 7 -20 15 -71
19 -115 l6 -78 -53 -30 c-29 -16 -51 -34 -48 -40 3 -5 30 -10 61 -10 65 0 149
-37 149 -66 0 -19 -55 -71 -103 -95 -51 -27 -127 -44 -194 -44 -56 0 -61 -2
-56 -20 4 -14 14 -20 34 -20 16 0 28 -3 27 -7 -9 -36 32 -99 75 -116 9 -3 17
-14 17 -24 0 -15 2 -16 10 -3 6 10 10 11 10 3 0 -7 7 -13 16 -13 9 0 25 -9 35
-21 9 -11 20 -19 23 -17 8 4 86 -45 86 -54 0 -5 6 -8 13 -8 6 0 28 -14 47 -30
19 -16 39 -30 43 -30 5 0 5 -5 1 -12 -4 -7 -3 -8 4 -4 6 4 26 -8 45 -26 18
-18 46 -39 60 -47 15 -8 27 -18 27 -23 0 -4 7 -8 16 -8 8 0 12 -5 9 -10 -4 -6
-3 -10 2 -9 22 4 43 -2 38 -11 -4 -6 10 -10 34 -10 23 0 41 -5 41 -11 0 -5 4
-7 10 -4 5 3 10 1 10 -5 0 -8 10 -9 30 -5 17 4 30 2 30 -3 0 -5 6 -10 13 -9
44 1 71 -4 58 -12 -11 -7 -11 -10 0 -17 7 -4 14 -3 16 3 2 5 14 8 28 6 13 -3
22 -10 19 -17 -3 -8 7 -11 33 -9 l38 4 -30 -15 -30 -15 47 4 c37 2 45 0 41
-11 -4 -11 2 -13 25 -8 17 3 32 1 36 -5 5 -7 1 -9 -8 -5 -9 4 -16 1 -16 -6 0
-8 9 -11 25 -8 14 3 25 1 25 -3 0 -5 -4 -9 -10 -9 -5 0 -10 -5 -10 -11 0 -6 9
-8 23 -4 19 5 20 5 4 -5 -9 -6 -26 -8 -37 -5 -13 4 -22 1 -26 -9 -3 -9 -10
-13 -15 -10 -5 3 -7 9 -4 14 9 14 -39 -2 -52 -17 -6 -8 -20 -14 -30 -13 -35 4
-49 1 -35 -9 9 -5 3 -8 -17 -9 -17 0 -33 3 -36 9 -3 5 0 6 8 3 8 -3 18 -1 22
5 3 6 -2 11 -13 11 -12 0 -22 9 -25 21 -3 12 -12 19 -19 17 -7 -3 -29 3 -48
13 -23 13 -36 15 -41 8 -3 -6 -9 -2 -12 10 -3 12 -11 21 -17 21 -10 0 -10 -3
0 -14 10 -13 7 -13 -20 -3 -25 10 -33 9 -40 -2 -7 -13 -14 -12 -49 1 -23 9
-41 12 -41 7 0 -5 -5 -9 -11 -9 -5 0 -7 5 -3 12 4 6 3 8 -4 5 -15 -10 -43 3
-35 16 3 5 1 7 -5 4 -14 -9 -43 3 -36 14 3 5 -1 6 -9 4 -7 -3 -29 5 -49 18
-44 30 -163 97 -172 97 -4 0 11 -26 33 -58 36 -53 48 -63 138 -106 54 -27 134
-64 178 -83 181 -79 249 -117 371 -209 120 -90 241 -187 289 -230 12 -11 50
-44 85 -74 36 -30 67 -57 70 -60 3 -3 34 -30 70 -60 36 -30 67 -58 70 -61 15
-17 182 -125 239 -153 138 -70 217 -88 421 -96 169 -7 190 -10 235 -32 91 -46
208 -87 375 -132 91 -25 185 -52 210 -61 25 -9 98 -21 163 -26 65 -5 162 -19
215 -30 211 -43 298 -59 400 -71 144 -17 665 -17 802 0 220 28 578 108 630
141 30 20 2 20 -66 1 -274 -79 -721 -133 -1014 -123 -301 10 -463 29 -730 87
-63 14 -171 29 -240 35 -69 5 -143 16 -165 24 -22 8 -119 36 -215 62 -114 31
-206 63 -262 92 -49 24 -88 45 -88 47 0 3 46 5 103 5 56 0 143 7 192 15 73 11
95 11 115 1 129 -65 736 -244 953 -280 205 -35 490 -30 747 11 283 46 754 169
801 210 11 10 50 15 125 18 60 2 122 8 137 15 32 12 107 14 220 5 l77 -7 -108
-44 c-59 -24 -197 -69 -307 -100 -110 -31 -204 -60 -209 -64 -5 -5 -3 -11 7
-15 28 -11 583 153 672 199 36 18 56 20 210 18 177 -2 250 7 365 47 165 57
281 139 580 409 32 29 207 169 377 302 60 47 191 121 215 121 23 0 123 50 248
124 25 14 70 39 101 55 46 24 63 41 92 91 36 60 37 61 9 42 -28 -20 -233 -124
-267 -135 -11 -4 -27 -10 -35 -13 -13 -5 -13 -4 0 6 12 8 9 10 -15 8 -16 -2
-32 -6 -35 -10 -3 -4 -26 -8 -52 -10 -25 -2 -45 -5 -42 -7 3 -3 -54 -40 -141
-91 -87 -51 -204 -125 -237 -152 -21 -16 -42 -27 -48 -23 -6 4 -9 1 -8 -7 2
-7 -3 -12 -10 -10 -8 1 -11 -1 -8 -6 6 -9 -33 -41 -74 -61 l-25 -12 23 20 c12
10 22 23 23 28 0 4 33 35 74 68 40 33 74 64 74 69 1 5 8 17 16 26 14 15 14 18
1 23 -11 4 -14 1 -10 -11 2 -9 -1 -7 -7 6 -7 12 -16 23 -21 23 -15 2 -22 5
-77 31 l-54 24 47 22 c25 12 53 22 61 22 8 0 15 5 15 10 0 6 13 10 29 10 16 0
31 4 33 10 2 5 15 11 30 12 15 1 24 6 22 10 -3 4 12 8 33 8 28 0 34 3 23 10
-11 7 -1 10 35 11 37 0 45 3 30 9 -15 7 -10 9 23 9 23 1 42 5 42 10 0 5 15 11
33 14 115 18 162 47 248 154 35 43 73 86 86 96 13 10 29 25 37 32 26 27 139
95 157 95 9 0 19 5 21 12 2 6 18 11 36 11 17 0 29 4 26 9 -3 4 2 8 11 8 19 0
16 20 -6 31 -8 5 -40 20 -72 35 -32 15 -75 46 -95 68 l-37 41 44 3 c24 2 49
-2 54 -7 6 -6 18 -11 27 -11 9 0 25 -8 36 -18 11 -9 26 -18 34 -20 8 -2 18 -8
21 -14 3 -5 9 -9 13 -8 17 5 64 -23 73 -43 8 -18 13 -12 37 47 21 53 24 71 15
82 -15 18 -35 18 -43 -1 -8 -23 -22 -19 -110 31 -121 68 -123 70 -102 93 13
14 16 28 11 53 -4 21 1 64 14 114 29 115 46 198 96 469 24 132 58 308 75 390
91 433 109 530 101 538 -5 5 -18 -32 -31 -89 -12 -55 -46 -198 -75 -320 -30
-121 -72 -317 -95 -435 -61 -317 -84 -423 -119 -536 l-32 -102 -62 43 c-99 69
-227 126 -284 126 -28 0 -28 4 -4 38 46 66 149 347 165 453 56 357 53 992 -5
1246 -6 26 -30 143 -54 258 -48 227 -90 389 -124 473 -11 29 -21 55 -21 57 0
9 84 54 92 49 4 -3 8 -34 8 -68 0 -71 16 -100 62 -110 22 -5 26 -3 22 9 -4 8
-11 15 -18 15 -17 0 -46 54 -46 85 0 21 4 25 19 20 18 -6 19 -4 5 41 -17 58
-19 60 -47 47 -89 -43 -119 -54 -126 -47 -13 14 -40 102 -33 108 3 3 19 6 35
6 17 0 64 16 104 36 41 20 75 35 77 33 12 -15 87 -164 104 -209 12 -30 28 -95
36 -143 12 -81 12 -89 -3 -94 -9 -2 -44 -16 -78 -30 -49 -19 -63 -30 -63 -46
0 -18 2 -19 17 -5 20 16 132 63 137 57 2 -2 6 -15 8 -28 3 -22 -3 -26 -77 -46
-53 -14 -80 -26 -80 -36 0 -8 5 -14 10 -14 20 1 130 28 147 37 14 7 19 2 26
-24 l8 -33 -73 -10 c-53 -8 -79 -17 -95 -33 -28 -27 -11 -29 52 -7 23 8 60 15
80 15 35 0 40 -3 49 -33 6 -18 15 -82 20 -142 11 -134 7 -140 -100 -151 -102
-10 -85 -29 24 -28 48 0 87 -2 87 -6 0 -4 8 -74 17 -156 32 -281 14 -998 -33
-1282 -26 -158 -2 -158 30 0 31 154 51 488 51 868 0 483 -19 732 -81 1040 -19
96 -37 193 -39 215 -7 52 -92 257 -144 344 -21 37 -59 91 -84 121 -42 52 -95
136 -247 392 -34 59 -69 109 -75 112 -7 2 -21 -1 -30 -8 -16 -12 -15 -16 17
-52 43 -47 140 -205 179 -289 15 -33 59 -99 99 -147 39 -49 68 -93 65 -98 -4
-6 -51 -33 -106 -59 l-98 -49 -19 32 c-9 17 -30 60 -46 96 -16 36 -35 75 -42
87 -18 29 -18 35 2 31 8 -2 33 -43 55 -93 22 -49 41 -91 44 -93 2 -2 24 5 48
16 55 24 83 62 68 90 -20 38 -34 41 -75 21 -52 -25 -54 -25 -73 17 -17 34 -17
36 0 45 38 22 17 31 -53 24 -83 -8 -91 4 -21 34 48 20 72 54 52 74 -11 11 -42
5 -42 -8 0 -17 -63 -77 -96 -91 -50 -22 -62 -17 -82 27 -15 32 -17 49 -9 81 5
23 7 47 4 55 -8 20 4 16 25 -9 10 -13 18 -18 19 -11 0 7 21 25 48 40 26 15 50
31 53 36 4 5 11 7 17 3 6 -3 13 -3 16 2 7 11 -11 37 -25 37 -7 0 -13 12 -13
28 -1 15 -14 39 -29 54 -26 26 -28 27 -74 15 -37 -10 -48 -10 -55 0 -12 20
-10 28 10 28 20 0 92 69 92 88 0 6 -14 34 -31 62 -17 28 -29 53 -27 56 7 7 71
-17 93 -35 19 -15 19 -15 5 3 -8 10 -38 29 -67 42 -41 19 -75 49 -157 142 -58
64 -122 140 -142 167 -83 110 -186 225 -221 246 -21 13 -76 52 -123 88 -576
442 -548 428 -1346 690 -584 192 -738 221 -1174 226 -157 2 -338 -1 -403 -5z
m183 -647 c-274 -125 -344 -164 -465 -263 -38 -31 -117 -81 -174 -110 -239
-122 -397 -297 -496 -549 -54 -137 -74 -225 -86 -376 -10 -136 3 -362 25 -425
8 -22 12 -40 10 -40 -2 0 -41 11 -86 24 -181 52 -419 60 -552 17 -55 -18 -79
-33 -117 -72 l-48 -50 -43 22 c-31 17 -66 24 -128 27 -99 5 -151 -8 -320 -81
-87 -37 -260 -98 -260 -91 0 6 229 400 280 480 257 409 674 871 956 1061 78
53 229 134 324 173 198 83 493 177 640 205 46 8 102 20 124 26 73 20 230 37
341 37 108 1 110 1 75 -15z m648 -8 c430 -94 796 -360 1032 -749 91 -149 169
-320 208 -456 40 -137 80 -345 69 -357 -4 -3 -60 15 -124 41 -149 58 -209 69
-353 64 -137 -6 -199 -26 -291 -96 -138 -105 -196 -145 -237 -164 -38 -17 -45
-18 -55 -5 -19 25 -114 39 -177 27 -97 -18 -160 -84 -175 -182 -3 -21 -9 -38
-13 -38 -4 0 -63 57 -132 126 -159 160 -190 184 -245 184 -58 0 -82 -20 -324
-263 -190 -191 -206 -204 -227 -195 -31 14 -111 -26 -239 -117 -49 -36 -96
-65 -103 -65 -7 0 -15 13 -18 30 -16 78 -64 43 -64 -46 0 -34 -5 -56 -15 -64
-12 -10 -14 -25 -9 -69 5 -46 3 -59 -10 -70 -14 -12 -20 -11 -39 8 -43 40 -60
23 -72 -72 l-7 -58 -28 44 c-23 37 -39 49 -87 67 -49 19 -69 21 -128 15 -38
-3 -106 -10 -150 -14 -84 -8 -138 -34 -150 -72 -3 -9 -20 -28 -38 -42 -18 -13
-51 -60 -74 -104 -59 -110 -57 -140 5 -88 50 42 50 41 71 -110 14 -109 1 -111
-70 -7 -86 125 -141 192 -163 198 -12 3 -39 -2 -62 -9 -37 -14 -42 -13 -65 4
-37 28 -67 25 -74 -8 -15 -73 -18 -77 -70 -89 -75 -17 -80 -21 -125 -80 -38
-51 -60 -67 -60 -44 0 5 -19 24 -42 41 -38 27 -49 30 -100 27 -52 -3 -60 0
-90 28 -70 67 -81 69 -308 66 -220 -4 -251 -10 -302 -59 -24 -23 -28 -24 -34
-10 -16 42 69 310 161 510 37 82 120 221 157 263 46 52 112 83 223 105 28 5
82 25 120 44 92 45 180 67 274 67 143 1 200 -30 251 -138 33 -68 32 -81 -10
-119 -34 -30 -61 -92 -67 -150 -8 -74 12 -78 26 -5 13 63 54 125 123 186 159
139 373 96 454 -91 32 -74 50 -84 40 -24 -14 89 -85 183 -162 215 -100 42
-190 37 -289 -15 -27 -14 -53 -27 -57 -29 -5 -2 -8 3 -8 11 0 8 -13 43 -29 77
l-30 62 21 28 c41 57 165 99 289 100 71 0 264 -25 348 -46 91 -23 187 -71 216
-108 13 -17 37 -62 54 -99 17 -38 35 -66 41 -62 17 10 11 43 -15 96 l-26 50
23 -12 c49 -25 105 -79 123 -118 10 -23 22 -41 27 -41 19 0 6 60 -23 103 -42
63 -88 100 -187 149 -45 23 -86 46 -91 52 -17 20 -41 163 -47 279 -23 393 162
808 448 1004 40 27 127 82 193 122 66 39 164 102 218 140 110 76 269 158 367
189 56 18 106 29 250 56 50 9 287 -3 358 -19z m-3066 -422 c38 -37 68 -71 68
-75 0 -20 -43 -4 -89 32 -57 45 -61 47 -54 22 3 -11 -11 -36 -38 -66 -39 -44
-44 -47 -56 -30 -7 9 -14 16 -16 13 -2 -2 -19 -25 -37 -52 l-34 -48 47 -47
c50 -51 56 -66 31 -76 -14 -5 -71 27 -168 96 -5 4 -2 18 9 35 24 37 247 263
260 263 5 0 40 -30 77 -67z m5729 -475 c41 -48 71 -107 64 -128 -3 -11 -22
-32 -41 -46 l-34 -26 -29 31 c-16 17 -36 31 -44 31 -8 0 -20 7 -27 15 -10 12
-5 24 34 71 25 31 46 60 46 65 0 15 11 10 31 -13z m109 -263 c21 -25 24 -90 5
-119 -10 -14 -23 -26 -29 -26 -24 0 -68 58 -73 97 -5 35 -3 39 23 50 41 16 60
15 74 -2z m-6636 -310 c69 -42 76 -49 51 -59 -20 -7 -154 59 -162 80 -3 8 3
24 13 35 17 19 19 19 25 2 4 -10 37 -36 73 -58z m4929 -61 c145 -37 467 -181
522 -234 25 -23 41 -29 92 -32 50 -3 82 -14 159 -54 54 -27 117 -67 142 -90
l45 -40 5 -87 c2 -48 2 -87 -2 -87 -4 0 -23 8 -44 19 -54 27 -127 42 -199 42
-84 0 -157 -33 -203 -91 l-34 -43 -16 64 c-47 192 -185 319 -460 425 -235 91
-372 109 -531 68 -31 -8 -60 -14 -63 -14 -39 0 126 114 214 148 71 27 279 31
373 6z m1715 0 c16 -5 34 -30 64 -93 22 -47 78 -160 123 -251 102 -206 142
-340 223 -745 57 -284 77 -537 69 -880 -6 -237 -23 -415 -47 -500 -14 -50 -11
-2 5 82 19 95 30 267 21 316 -4 20 -18 50 -32 67 -15 17 -26 40 -25 53 1 12 4
68 7 124 10 166 -42 585 -101 828 -62 254 -182 576 -292 785 -61 116 -95 199
-87 212 6 9 39 10 72 2z m252 -101 c0 -20 -28 -53 -46 -53 -7 0 -18 9 -24 19
-8 16 -6 23 12 35 29 21 58 20 58 -1z m-3497 -32 c27 -11 217 -198 398 -393
118 -128 212 -244 264 -328 25 -40 120 -164 153 -198 6 -7 12 -14 12 -15 0 -1
-22 -3 -48 -4 l-48 -2 -49 72 c-62 88 -61 87 -34 80 16 -5 20 -3 14 6 -4 7
-15 11 -25 8 -18 -5 -77 51 -195 183 -27 30 -99 109 -161 175 -61 66 -140 153
-174 193 -69 81 -113 109 -156 98 -54 -14 -393 -367 -607 -633 -128 -160 -273
-328 -356 -415 -32 -33 -39 -36 -45 -23 -5 15 -9 15 -23 4 -26 -21 70 102 110
141 47 45 187 238 229 314 18 33 87 121 154 195 136 152 498 521 529 539 25
14 28 14 58 3z m1374 -70 c88 -25 249 -94 323 -137 99 -58 175 -136 220 -227
40 -79 41 -85 39 -167 -4 -104 10 -115 61 -43 50 72 121 143 159 159 50 21
131 17 203 -10 109 -41 280 -115 297 -128 70 -55 111 -153 111 -264 l0 -51
-52 8 c-100 16 -255 -32 -323 -99 l-29 -29 -30 18 c-43 26 -103 33 -185 20
l-72 -11 -33 35 c-24 25 -42 35 -63 35 -41 0 -111 -52 -118 -87 -9 -43 -24
-63 -97 -132 l-67 -63 -15 30 c-23 45 -82 91 -131 103 -25 6 -45 15 -45 19 0
4 -19 29 -42 55 -77 88 -176 114 -285 76 -85 -29 -83 -35 -83 292 0 165 4 277
9 277 5 0 21 4 36 10 42 16 17 44 -56 65 -49 13 -105 17 -263 18 -111 0 -218
-3 -239 -7 -38 -8 -38 -8 -31 20 4 16 11 34 16 39 5 6 82 12 171 15 89 3 168
9 175 13 6 5 12 19 12 31 0 29 -28 36 -146 36 -47 0 -84 4 -84 10 0 9 19 16
150 49 41 11 98 26 125 35 71 22 284 15 382 -13z m-714 -20 c18 -6 18 -7 0
-23 -10 -10 -40 -27 -65 -38 -50 -22 -57 -28 -63 -61 -2 -11 -22 -40 -43 -63
-21 -23 -44 -51 -50 -62 -19 -32 -34 3 -29 71 5 69 36 138 70 156 46 25 141
36 180 20z m-640 -114 c12 -13 51 -65 86 -115 54 -79 66 -90 79 -80 13 11 14
10 8 -10 -6 -19 7 -37 81 -114 48 -50 132 -134 185 -186 55 -54 125 -134 160
-186 34 -50 128 -170 209 -267 228 -273 326 -399 360 -463 26 -48 29 -58 14
-52 -16 6 -16 4 -4 -11 8 -10 22 -24 32 -31 10 -8 17 -26 17 -44 0 -26 -16
-46 -95 -125 -52 -51 -102 -105 -111 -118 -9 -14 -23 -25 -30 -25 -19 0 -18 5
12 57 23 38 27 56 26 120 0 65 -4 84 -35 146 -97 195 -450 592 -747 840 -173
144 -300 261 -300 275 0 16 28 34 40 27 7 -4 19 -20 28 -35 27 -43 132 -134
143 -123 6 6 0 22 -16 43 -14 19 -25 36 -25 38 0 9 102 -79 263 -226 92 -85
220 -216 285 -290 64 -75 158 -179 208 -232 180 -187 224 -257 259 -414 10
-48 28 -14 27 52 -1 54 -5 65 -57 143 -76 112 -108 151 -246 299 -64 69 -157
175 -207 235 -49 61 -175 200 -279 310 -186 196 -226 240 -339 378 -31 38 -67
72 -80 77 -32 13 -64 -3 -90 -43 -38 -58 -210 -241 -277 -297 -39 -31 -67 -61
-67 -72 0 -10 -6 -21 -14 -24 -18 -7 -265 -285 -321 -362 -263 -360 -391 -558
-429 -666 l-24 -69 27 -42 c14 -24 29 -40 33 -37 4 4 16 49 27 101 14 63 34
118 62 170 73 132 278 430 381 554 78 94 267 287 281 287 5 0 81 69 167 154
156 154 240 216 240 179 0 -10 -14 -26 -30 -35 -17 -10 -30 -25 -30 -36 0 -21
-257 -299 -486 -527 -152 -150 -213 -227 -320 -400 -81 -133 -140 -252 -156
-320 -11 -45 -18 -54 -70 -88 -57 -38 -72 -57 -44 -57 8 0 40 -21 72 -47 54
-44 56 -47 34 -55 -28 -10 -33 -6 -155 117 -114 115 -190 204 -181 212 3 4 31
-17 61 -47 30 -30 56 -52 58 -49 2 2 12 28 21 58 31 97 95 209 246 435 153
226 193 280 360 478 53 62 118 142 145 178 46 60 122 142 360 387 99 102 126
114 168 70z m681 -284 c-8 -157 -14 -165 -62 -80 -16 29 -37 59 -46 66 -9 7
-16 17 -16 22 0 17 91 99 111 99 19 0 19 -5 13 -107z m347 86 c5 -8 9 -129 9
-270 l0 -256 -155 155 -155 156 0 111 c0 62 3 115 8 119 4 5 69 6 145 4 106
-3 141 -8 148 -19z m-1696 -96 c-153 -140 -186 -169 -239 -204 -62 -41 -81
-45 -81 -14 0 29 302 255 340 255 17 0 13 -7 -20 -37z m685 -31 c0 -13 -3 -12
-20 3 -11 10 -17 22 -14 27 8 12 34 -11 34 -30z m80 -58 c0 -18 -14 -18 -30 1
-16 19 -3 40 16 24 8 -6 14 -18 14 -25z m-158 -73 c29 -42 100 -104 224 -193
76 -55 132 -101 199 -161 l30 -27 -70 7 c-38 5 -233 8 -432 8 l-361 -1 31 40
c18 22 94 104 170 181 77 77 146 150 154 163 8 12 18 22 22 22 3 -1 18 -18 33
-39z m958 -193 c100 -101 150 -161 211 -255 45 -67 96 -134 115 -148 47 -36
67 -58 129 -140 73 -96 100 -151 88 -177 -8 -18 -20 -6 -113 108 -57 70 -158
190 -224 267 -230 265 -416 519 -358 488 11 -6 80 -70 152 -143z m-1807 51
c13 -21 -3 -61 -43 -109 l-29 -35 -1 77 c0 52 4 78 13 82 21 9 50 2 60 -15z
m-361 -69 c22 -27 24 -60 3 -60 -8 0 -21 -12 -28 -27 l-15 -27 -7 35 c-4 19
-10 38 -13 43 -8 13 -31 -35 -32 -66 0 -35 -13 -35 -39 -2 -20 25 -41 25 -41
0 0 -8 -8 -16 -17 -20 -10 -3 -24 -9 -30 -12 -10 -4 -13 9 -13 51 0 50 3 60
27 79 41 33 53 36 122 32 52 -3 68 -8 83 -26z m219 -77 c-13 -48 -74 -145
-300 -475 -46 -68 -95 -145 -109 -172 -23 -44 -27 -47 -39 -30 -18 25 -17 38
11 92 34 66 72 127 227 362 75 113 154 232 175 265 l39 60 3 -32 c2 -17 -1
-49 -7 -70z m-485 31 c-3 -26 -6 -64 -6 -86 l0 -39 -68 3 c-51 1 -74 -2 -92
-15 -14 -9 -35 -17 -49 -17 -21 0 -23 3 -18 33 3 18 21 51 41 73 89 97 84 94
144 94 l55 0 -7 -46z m4278 -65 c55 -15 209 -121 276 -189 55 -56 164 -180
158 -180 -2 0 -27 9 -56 20 -53 20 -170 26 -237 11 -24 -5 -32 -2 -40 14 -12
24 -71 45 -136 50 -28 2 -61 13 -83 29 -50 34 -108 41 -176 21 -93 -27 -102
-28 -110 -15 -21 34 64 148 147 197 79 46 182 63 257 42z m-1592 -31 c44 -41
61 -52 56 -38 -9 28 22 45 81 44 99 -1 145 -43 159 -146 3 -28 9 -38 23 -38
10 0 21 5 24 10 12 19 78 11 102 -12 23 -22 28 -44 17 -86 -6 -22 -8 -22 -31
-7 -33 22 -87 16 -91 -9 -3 -11 -10 -26 -18 -34 -8 -7 -14 -21 -14 -31 0 -9
-5 -22 -12 -29 -9 -9 -15 -6 -27 12 -25 36 -63 78 -104 114 -28 24 -33 32 -20
32 21 0 63 27 63 40 0 5 -21 26 -46 46 -40 33 -48 36 -65 26 -11 -7 -23 -11
-27 -8 -17 11 -103 126 -93 126 5 0 16 -6 23 -12z m866 -65 c3 -23 -30 -49
-48 -38 -12 7 -13 48 -3 59 15 14 48 1 51 -21z m302 1 c7 -7 3 -27 -15 -65
-13 -30 -25 -71 -25 -91 0 -21 -4 -38 -9 -38 -6 0 -22 17 -37 38 -15 20 -47
56 -72 79 -47 46 -49 61 -11 81 28 15 153 12 169 -4z m-3929 -4 c10 -6 19 -15
19 -20 0 -14 -47 -55 -91 -79 l-39 -22 0 36 c0 28 7 44 31 66 33 31 49 35 80
19z m1886 -6 c55 -4 90 -11 90 -18 0 -8 -128 -11 -456 -11 -251 0 -438 3 -416
6 22 3 36 7 30 9 -53 16 566 27 752 14z m183 -36 c27 -68 39 -177 45 -413 3
-137 8 -263 10 -280 l5 -30 95 -3 c52 -1 116 -3 143 -4 26 -1 81 2 122 6 60 6
79 5 95 -7 20 -16 20 -16 -3 -82 -13 -36 -21 -72 -18 -80 5 -13 -27 -15 -231
-15 l-236 0 8 -435 c4 -239 4 -581 0 -760 l-8 -325 -22 0 c-19 0 -23 7 -29 46
-3 26 -6 331 -6 678 0 347 -3 668 -7 714 l-6 82 -727 0 -727 0 -67 51 -67 52
48 34 c26 19 57 36 68 38 11 2 104 6 207 8 l187 4 38 -26 38 -26 477 1 478 0
25 24 26 24 -2 362 c-1 199 1 367 5 373 11 18 26 13 36 -11z m1484 -31 c11
-30 12 -28 -153 -227 -159 -191 -288 -336 -436 -490 -71 -74 -178 -194 -236
-265 -142 -174 -177 -205 -232 -205 -98 0 -98 1 31 129 106 104 168 171 449
477 77 84 260 297 349 408 78 96 191 209 205 204 8 -3 18 -16 23 -31z m-3950
7 c4 -9 4 -19 2 -21 -8 -8 -26 8 -26 23 0 19 16 18 24 -2z m-727 -31 c29 -13
62 -36 73 -51 18 -22 24 -24 40 -14 11 7 37 12 59 12 31 0 47 -7 76 -35 33
-30 37 -39 33 -72 -3 -22 1 -50 9 -66 19 -38 14 -48 -50 -95 -30 -22 -70 -64
-90 -94 -19 -29 -49 -66 -66 -82 -25 -24 -33 -27 -46 -16 -22 18 -47 -4 -39
-36 5 -18 -5 -35 -48 -80 -29 -31 -72 -66 -96 -76 -33 -15 -42 -24 -37 -37 7
-22 -92 -111 -148 -135 -39 -16 -44 -25 -25 -44 14 -14 -76 -98 -135 -124 -22
-10 -37 -21 -34 -25 4 -3 12 -2 20 3 7 5 1 -1 -13 -13 -14 -13 -19 -23 -12
-23 20 0 14 -28 -10 -44 -12 -9 -32 -16 -44 -16 -37 0 -74 -37 -74 -75 0 -47
24 -68 69 -60 20 3 109 9 199 13 l162 7 0 -84 c0 -75 -2 -82 -17 -75 -10 4
-39 9 -64 12 -85 7 -158 -48 -182 -137 -10 -36 -18 -47 -45 -58 -18 -8 -53
-32 -78 -55 -44 -41 -45 -41 -87 -28 -57 16 -116 81 -144 156 -59 157 -123
551 -123 755 0 108 3 129 31 212 38 114 45 127 132 257 129 193 194 270 228
270 9 0 22 7 30 16 7 8 31 25 53 37 34 17 66 22 186 27 184 9 242 4 307 -27z
m4798 -73 c8 -41 15 -106 15 -143 0 -38 5 -78 11 -89 13 -24 5 -20 -51 22 -19
15 -51 33 -70 40 -19 8 -38 18 -41 23 -4 6 -13 7 -21 4 -8 -3 -87 -99 -176
-215 -89 -115 -215 -270 -279 -343 -133 -149 -383 -373 -411 -366 -18 4 -18 4
33 22 18 6 18 8 3 14 -13 5 -3 21 54 81 294 311 380 403 433 460 33 36 62 67
65 70 3 3 16 18 28 34 12 15 42 51 67 78 25 28 80 98 123 156 42 59 93 123
113 142 19 19 46 50 59 69 13 19 25 30 27 25 1 -5 9 -43 18 -84z m-2695 32 c0
-12 -7 -25 -15 -28 -16 -6 -119 -162 -158 -239 -44 -88 -77 -177 -89 -241
l-11 -62 -54 -4 c-29 -1 -53 0 -53 3 0 13 55 139 97 222 73 145 207 349 253
384 18 14 30 0 30 -35z m157 -254 c-4 -254 -2 -308 10 -332 l15 -28 351 5
c231 3 333 2 298 -4 -30 -5 -216 -8 -415 -7 l-361 3 1 316 c0 174 3 323 7 332
5 13 19 17 52 17 l46 0 -4 -302z m723 285 c0 -17 -12 -18 -147 -15 -82 2 -220
-1 -308 -6 -88 -5 -163 -8 -167 -5 -4 2 -5 10 -2 18 5 12 55 15 308 18 165 1
304 3 309 5 4 1 7 -6 7 -15z m110 -308 l0 -315 -36 0 c-19 0 -33 3 -31 8 3 4
7 145 8 314 l4 308 28 0 27 0 0 -315z m1811 258 c121 -125 228 -272 260 -356
12 -31 32 -63 44 -71 13 -8 69 -84 126 -168 56 -84 123 -180 148 -213 78 -103
241 -289 274 -312 l31 -23 -30 0 c-61 0 -157 83 -297 259 -105 132 -210 303
-252 408 -9 22 -37 63 -62 90 -104 111 -257 311 -284 371 -16 35 -29 66 -29
68 0 14 22 -3 71 -53z m-4082 9 c93 -96 221 -247 271 -318 160 -227 489 -584
673 -729 56 -44 51 -55 -28 -55 -50 0 -50 0 -137 90 -48 50 -124 136 -170 193
-113 141 -215 260 -333 391 -140 155 -313 361 -337 402 -16 28 -18 37 -8 49
18 22 29 19 69 -23z m-175 9 c3 -5 -1 -14 -9 -21 -8 -7 -15 -10 -15 -7 0 3 -3
12 -6 21 -7 17 20 23 30 7z m2759 -131 c92 -104 224 -286 261 -361 l37 -74
-46 -3 c-55 -4 -68 8 -115 108 -45 92 -121 216 -179 291 -27 35 -47 68 -44 73
3 5 1 6 -4 3 -13 -8 -23 14 -29 63 l-4 35 38 -40 c20 -22 59 -65 85 -95z
m-743 0 l0 -110 -45 0 -45 0 0 103 c0 57 3 107 7 110 3 4 24 7 45 7 l38 0 0
-110z m2645 84 c42 -28 74 -63 75 -81 0 -10 -37 -11 -113 -4 -5 1 -6 5 -3 10
3 4 0 16 -7 26 -12 16 -15 15 -40 -14 -28 -34 -43 -40 -33 -15 6 15 4 15 -20
-1 -33 -21 -38 -16 -29 33 5 32 13 43 38 56 46 23 89 20 132 -10z m-2777 -86
l-3 -103 -75 0 -75 0 -3 97 -3 97 28 4 c15 2 52 5 81 6 l53 1 -3 -102z m430
90 c8 -8 12 -46 12 -105 l0 -93 -130 0 -130 0 0 105 0 105 118 0 c78 0 122 -4
130 -12z m-634 -14 c3 -9 6 -51 6 -95 0 -64 -3 -79 -15 -79 -12 0 -15 17 -15
95 0 88 9 118 24 79z m-1894 -14 c8 -15 6 -21 -9 -30 -44 -23 -81 -6 -60 28
16 25 56 26 69 2z m150 4 c0 -24 -72 -106 -260 -299 -92 -93 -179 -186 -194
-205 -71 -89 -485 -516 -525 -541 -30 -20 -58 -29 -85 -29 l-41 0 50 42 c73
61 642 633 765 768 139 153 266 280 279 280 6 0 11 -7 11 -16z m160 -32 c86
-130 180 -246 331 -407 31 -33 72 -78 90 -100 19 -22 36 -42 39 -45 3 -3 70
-79 149 -169 79 -90 169 -189 199 -220 l55 -56 -38 -3 c-33 -3 -44 2 -84 40
-25 24 -77 70 -114 102 -75 65 -197 216 -418 520 -128 177 -149 201 -175 204
-20 2 -36 -4 -49 -18 -10 -11 -26 -20 -36 -20 -22 0 -54 40 -69 86 -10 29 -9
38 4 53 9 10 16 23 16 29 0 15 49 52 63 46 7 -2 23 -21 37 -42z m4770 2 c45
-18 42 -32 -13 -61 -36 -18 -53 -6 -63 45 -6 28 -4 32 15 32 11 0 39 -7 61
-16z m-3414 -56 c-2 -35 -3 -148 -4 -252 -2 -162 -4 -187 -17 -182 -8 3 -55 8
-105 12 -89 7 -90 7 -90 34 0 39 27 123 68 209 40 85 133 241 143 241 4 0 6
-28 5 -62z m1221 -13 c94 -123 190 -329 181 -387 -3 -22 -7 -23 -109 -23
l-106 0 -7 134 c-8 185 -8 337 2 326 5 -6 22 -28 39 -50z m-2217 20 c13 -14
19 -25 12 -25 -6 0 -14 -9 -17 -20 -3 -11 -10 -20 -15 -20 -10 0 -50 63 -50
79 0 20 46 11 70 -14z m4010 -15 c0 -15 -5 -12 -26 11 -19 22 -19 22 4 10 12
-6 22 -16 22 -21z m769 -16 c117 -64 398 -349 451 -459 48 -100 46 -290 -6
-536 -45 -214 -86 -303 -176 -381 -53 -45 -111 -76 -145 -78 -7 0 -21 17 -32
38 -40 78 -204 191 -278 192 -22 0 -23 3 -23 90 l0 90 40 -16 c36 -15 52 -15
134 -4 76 11 100 11 125 1 40 -17 75 -8 89 24 26 57 6 87 -79 115 -50 17 -68
34 -165 153 -8 9 -14 28 -14 41 0 26 -18 49 -53 67 -21 11 -21 10 2 -15 14
-14 19 -26 12 -26 -6 0 -21 16 -32 35 -12 19 -25 35 -30 35 -12 0 -89 70 -89
81 0 5 13 9 29 9 17 0 33 4 36 10 6 10 -108 172 -126 178 -5 2 -22 -6 -39 -18
-21 -15 -30 -17 -30 -8 0 7 -3 22 -5 33 -4 15 5 28 35 49 37 28 39 31 24 47
-9 10 -29 21 -45 24 -38 9 -43 19 -24 54 8 17 15 42 15 56 0 104 93 158 260
151 71 -2 94 -8 139 -32z m-4650 7 l24 -18 -42 -62 c-24 -34 -48 -60 -54 -58
-6 2 -24 20 -40 39 -27 34 -28 38 -14 58 18 26 66 58 87 59 8 0 26 -8 39 -18z
m3661 -28 c0 -6 9 -28 21 -47 12 -20 19 -36 16 -36 -9 0 -56 80 -63 107 -6 27
-6 27 9 8 9 -11 17 -25 17 -32z m-4290 -16 c0 -29 -15 -49 -110 -146 -61 -63
-204 -220 -319 -350 -114 -130 -251 -277 -303 -328 -85 -81 -100 -92 -129 -90
-27 2 -33 -1 -31 -15 2 -10 -1 -18 -6 -18 -5 0 -25 -3 -43 -6 -33 -6 -31 -4
41 62 119 109 275 270 377 389 112 129 440 465 454 465 6 0 7 5 4 10 -3 6 -1
10 6 10 7 0 10 3 6 6 -9 10 17 33 51 43 1 1 2 -14 2 -32z m1730 -97 c0 -29 -4
-40 -15 -40 -11 0 -15 11 -15 40 0 29 4 40 15 40 11 0 15 -11 15 -40z m200 -5
l0 -35 -80 0 -80 0 0 35 0 35 80 0 80 0 0 -35z m128 3 c-3 -30 -6 -33 -40 -36
-37 -3 -38 -3 -38 32 0 35 1 36 41 36 39 0 40 -1 37 -32z m322 3 l0 -28 -107
-6 c-160 -8 -167 -7 -171 31 l-3 32 140 0 141 0 0 -29z m-2152 -48 c65 -90
225 -325 284 -419 96 -151 -35 -17 -162 166 -32 47 -81 117 -109 157 -57 82
-81 125 -81 148 0 29 18 15 68 -52z m3777 39 c-12 -68 -107 -205 -331 -478
-136 -166 -302 -314 -350 -314 -13 0 -24 4 -24 8 0 5 44 47 98 94 160 141 256
251 461 526 78 105 145 192 147 192 2 0 2 -13 -1 -28z m184 -4 c34 -95 68
-208 62 -208 -4 0 -19 12 -34 28 -36 38 -99 71 -104 55 -4 -12 -182 -257 -229
-316 -18 -22 -30 -27 -68 -27 -25 0 -46 2 -46 6 0 9 106 148 167 220 33 38 84
103 115 144 70 93 95 120 114 120 8 0 18 -10 23 -22z m161 -118 c54 -103 320
-500 399 -595 55 -67 52 -76 -10 -22 -62 54 -167 192 -175 230 -4 15 -24 41
-45 58 -21 16 -59 61 -84 98 -50 76 -160 299 -170 346 -6 28 -5 27 25 -15 17
-25 44 -70 60 -100z m-4235 48 c22 -29 94 -121 160 -204 66 -84 129 -167 139
-184 l19 -33 -42 6 c-23 3 -48 11 -57 17 -8 7 -50 63 -94 125 -44 62 -87 118
-96 126 -9 7 -20 24 -25 37 -8 20 -13 23 -42 17 -17 -4 -38 -12 -44 -17 -10
-8 -13 -5 -13 8 0 25 41 154 49 154 4 0 25 -24 46 -52z m-146 -25 c-10 -30
-91 -123 -295 -339 -73 -76 -164 -177 -203 -224 -84 -99 -186 -190 -215 -190
-16 0 5 26 80 103 56 56 121 124 145 152 24 27 85 92 135 145 50 52 106 113
125 135 69 81 226 244 236 245 1 0 -2 -12 -8 -27z m1761 -49 c0 -56 -3 -75
-12 -72 -9 3 -14 30 -16 76 -2 60 0 72 13 72 12 0 15 -14 15 -76z m200 -4 l0
-80 -80 0 -80 0 0 80 0 80 80 0 80 0 0 -80z m130 0 l0 -80 -40 0 -40 0 0 80 0
80 40 0 40 0 0 -80z m318 8 l-3 -73 -132 -3 -133 -3 0 76 0 75 135 0 136 0 -3
-72z m2111 5 c20 -17 144 -243 137 -250 -2 -2 -30 25 -62 60 -74 81 -139 188
-121 199 17 11 22 10 46 -9z m-1067 -45 c-7 -7 -12 -8 -12 -2 0 14 12 26 19
19 2 -3 -1 -11 -7 -17z m814 -65 c48 -49 83 -81 79 -73 -4 8 9 -1 28 -21 39
-39 87 -106 87 -120 0 -5 -96 -9 -212 -9 -149 1 -208 4 -196 11 10 5 44 42 75
81 l57 72 53 -60 c61 -68 68 -62 20 17 -52 86 -61 99 -68 99 -3 0 -31 -35 -61
-77 -80 -111 -118 -145 -157 -141 l-31 3 112 152 c62 84 116 152 121 153 4 0
46 -39 93 -87z m-4786 73 c0 -2 -7 -7 -16 -10 -8 -3 -12 -2 -9 4 6 10 25 14
25 6z m5319 -40 c6 -12 18 -31 27 -43 9 -13 14 -23 11 -23 -2 0 -23 25 -47 56
-25 33 -33 50 -21 43 11 -7 24 -22 30 -33z m-4775 -23 c-58 -78 -188 -238
-201 -249 -36 -30 -11 -33 317 -36 281 -3 332 -5 340 -18 5 -8 10 -18 10 -22
0 -5 -177 -8 -394 -8 -351 0 -395 2 -400 16 -8 20 -4 26 57 82 64 59 75 70
166 171 66 74 97 98 125 100 4 1 -4 -16 -20 -36z m194 -102 c50 -74 79 -127
73 -131 -6 -3 -101 -7 -212 -8 -162 -2 -199 0 -193 10 4 7 37 47 74 88 36 41
83 97 104 123 23 29 45 47 55 45 9 -2 53 -59 99 -127z m4082 84 c13 -14 21
-25 18 -25 -2 0 -15 11 -28 25 -13 14 -21 25 -18 25 2 0 15 -11 28 -25z m660
-131 c31 -33 86 -100 123 -150 37 -50 77 -96 91 -103 13 -7 49 -44 81 -82 63
-77 54 -92 -26 -41 -95 61 -379 403 -379 457 0 16 61 -30 110 -81z m-192 -159
c30 -39 68 -88 85 -109 18 -22 32 -49 32 -62 1 -13 9 -32 20 -44 10 -11 15
-23 12 -27 -4 -3 -7 -1 -7 5 0 6 -12 17 -27 24 -26 13 -143 172 -184 251 -19
36 -19 38 -3 35 10 -2 42 -35 72 -73z m-880 14 c-3 -31 -5 -32 -53 -33 -41 -1
-50 2 -53 17 -7 37 5 47 58 47 l51 0 -3 -31z m652 -11 l0 -28 -300 0 -300 0 0
29 0 30 300 -2 300 -2 0 -27z m-1697 -315 c3 -181 12 -504 18 -718 7 -215 10
-399 6 -408 -5 -14 -20 -17 -86 -17 l-79 0 -4 78 c-2 42 -2 373 0 735 l3 657
68 0 68 0 6 -327z m99 230 c3 -86 1 -100 -15 -115 -46 -43 -57 -4 -41 151 6
55 9 61 30 61 22 0 23 -4 26 -97z m127 30 c-35 -38 -67 -69 -71 -71 -10 -5
-10 99 0 115 7 11 41 18 106 21 28 2 27 0 -35 -65z m-1929 25 c0 -29 -1 -30
-17 -16 -10 8 -27 19 -38 23 -18 7 -17 9 10 15 17 4 33 8 38 9 4 0 7 -13 7
-31z m126 24 c6 -4 14 -41 17 -82 3 -41 9 -86 13 -100 6 -21 -2 -15 -48 28
-57 54 -70 85 -60 138 3 19 10 24 36 24 17 0 36 -4 42 -8z m245 -14 c2 -31 -3
-1433 -5 -1435 -1 -1 -47 -5 -104 -9 l-102 -7 0 69 c0 58 16 434 46 1089 3 72
2 172 -3 223 l-9 92 88 0 c84 0 88 -1 89 -22z m150 -10 c2 -48 2 -107 0 -153
l-1 -40 -45 0 -45 0 0 106 c0 58 3 109 7 112 3 4 24 7 45 7 36 0 38 -2 39 -32z
m859 -73 l0 -105 -399 0 -398 0 -7 61 c-3 34 -6 82 -6 105 l0 44 405 0 405 0
0 -105z m-2851 -601 c0 -346 -2 -644 -6 -662 -6 -36 4 -34 -108 -17 l-35 6 -1
442 c-1 243 -4 467 -9 497 -4 30 -8 -204 -8 -520 l-1 -575 -38 -3 c-21 -1 -44
1 -50 6 -10 6 -13 121 -14 492 -2 470 -7 589 -21 545 -10 -29 -15 -1356 -5
-1382 7 -20 4 -21 -48 -25 l-55 -3 0 747 0 748 52 26 c69 35 152 116 251 243
69 90 81 102 88 84 4 -11 8 -303 8 -649z m1084 572 c48 -46 87 -87 87 -90 0
-3 -13 -6 -29 -6 -21 0 -48 19 -115 82 -63 59 -84 83 -74 89 26 17 45 7 131
-75z m3989 -107 c54 -53 78 -69 119 -80 78 -21 77 -16 75 -541 l-1 -443 -53
-9 c-29 -5 -56 -6 -60 -2 -4 4 -9 206 -12 449 l-5 442 -7 -274 c-5 -151 -8
-357 -8 -458 0 -166 -2 -184 -17 -190 -10 -3 -44 -16 -76 -28 l-58 -23 7 41
c8 46 9 53 6 150 l-2 67 -39 0 -38 0 -5 533 c-3 292 -3 536 0 542 3 5 29 -18
56 -50 28 -33 81 -90 118 -126z m-4616 161 c350 0 374 -1 374 -17 -1 -46 -1
-46 -331 -51 -172 -2 -346 -1 -386 3 -71 7 -73 7 -73 34 0 32 9 44 28 36 7 -3
182 -5 388 -5z m3642 -628 c2 -339 0 -632 -3 -651 -5 -25 -9 -31 -18 -22 -16
16 -101 14 -142 -3 l-34 -14 -6 53 c-4 29 -4 79 0 112 10 84 -6 817 -17 773
-5 -19 -8 -244 -7 -500 1 -256 -2 -493 -6 -527 l-7 -63 -49 0 -49 0 -2 544
c-2 299 -6 548 -10 552 -5 4 -11 4 -15 0 -5 -4 -10 -269 -11 -589 -3 -426 -7
-585 -15 -594 -11 -11 -38 -17 -63 -14 -7 0 -15 18 -19 38 -4 21 -3 317 1 659
l7 621 88 10 c107 12 125 23 259 158 65 65 98 91 105 84 6 -6 11 -219 13 -627z
m752 598 l0 -30 -354 0 -354 0 -4 30 -5 30 359 0 358 0 0 -30z m-3880 -70 c78
-83 96 -96 167 -119 33 -11 43 -19 45 -39 4 -36 28 -41 28 -7 0 26 2 27 38 21
20 -3 48 -6 62 -6 l25 0 0 -644 c0 -637 0 -645 -20 -650 -11 -3 -36 -6 -55 -6
l-35 0 3 583 c2 508 1 587 -13 613 -15 29 -15 29 -16 -36 -1 -36 0 -281 1
-545 1 -264 -1 -501 -5 -527 -7 -43 -11 -49 -54 -71 -49 -25 -52 -25 -118 4
-23 11 -58 19 -77 19 -28 0 -39 6 -58 33 l-23 32 -3 660 c-3 663 0 765 21 765
6 0 45 -36 87 -80z m3212 -137 c2 -82 5 -302 6 -490 2 -338 2 -343 -18 -343
-20 0 -20 5 -20 490 0 421 2 490 14 490 12 0 16 -27 18 -147z m598 117 l0 -30
-115 0 c-110 0 -116 1 -124 22 l-8 22 -6 -23 c-5 -22 -8 -22 -156 -20 l-151 2
0 28 0 29 280 0 280 0 0 -30z m67 -458 c3 -447 0 -512 -22 -490 -7 7 -18 945
-12 963 4 9 13 15 20 12 9 -3 13 -111 14 -485z m-4037 -66 l0 -544 -202 -6
c-112 -3 -284 -2 -383 2 l-180 7 -3 543 -2 542 385 0 385 0 0 -544z m3708 427
c-2 -22 -8 -28 -28 -28 -31 0 -42 40 -13 48 39 10 44 7 41 -20z m-88 -4 c0
-18 -4 -20 -32 -14 -42 10 -78 23 -78 30 0 3 25 5 55 5 49 0 55 -2 55 -21z
m1335 1 c0 -23 -49 -20 -53 3 -3 15 2 18 25 15 17 -2 28 -9 28 -18z m-2932 3
c-13 -2 -35 -2 -50 0 -16 2 -5 4 22 4 28 0 40 -2 28 -4z m-3633 -38 c-11 -10
-19 -11 -30 -4 -13 8 -12 11 4 24 26 19 47 2 26 -20z m5471 -16 l-31 -42 0 32
c0 18 4 30 9 27 4 -3 16 3 26 14 31 34 28 14 -4 -31z m-3055 -161 c-4 -112
-11 -327 -16 -478 -5 -151 -10 -321 -11 -377 -2 -131 -6 -150 -32 -155 l-22
-4 3 585 c1 322 5 596 7 609 4 18 12 22 41 22 l36 0 -6 -202z m1657 5 c10
-280 8 -1006 -2 -1021 -6 -11 -10 -10 -16 5 -4 10 -14 227 -21 483 -7 256 -14
525 -17 598 l-4 132 27 0 27 0 6 -197z m167 -106 c0 -162 -3 -429 -7 -595 l-6
-302 -47 0 -47 0 -6 302 c-4 166 -7 428 -7 583 l0 282 23 11 c12 6 39 11 60
11 l37 1 0 -293z m1327 196 c-2 -21 -4 -6 -4 32 0 39 2 55 4 38 2 -18 2 -50 0
-70z m-3311 75 c10 -16 4 -966 -6 -993 -5 -13 -14 -26 -19 -30 -23 -13 -10
-26 19 -20 36 8 39 -7 6 -25 -13 -7 -27 -21 -29 -32 -5 -17 -2 -18 24 -13 28
6 29 5 20 -18 -5 -14 -7 -28 -4 -31 6 -6 -49 -9 -64 -3 -10 3 -10 10 -17 625
l-6 552 34 0 c19 0 38 -5 42 -12z m494 -553 c0 -558 0 -565 -20 -565 -20 0
-20 7 -20 565 0 558 0 565 20 565 20 0 20 -7 20 -565z m40 0 c0 -370 -3 -565
-10 -565 -7 0 -10 195 -10 565 0 370 3 565 10 565 7 0 10 -195 10 -565z m1580
343 c-1 -310 -17 -968 -24 -975 -3 -4 -17 -1 -30 5 l-25 11 -1 574 c0 316 2
582 6 591 4 10 18 16 40 16 l34 0 0 -222z m746 123 c6 -41 6 -41 -25 -41 l-31
0 0 64 c0 102 39 86 56 -23z m104 -9 c0 -13 -8 -21 -24 -24 -21 -4 -25 1 -40
51 -9 31 -19 63 -22 71 -3 8 15 -6 40 -32 25 -26 46 -56 46 -66z m140 33 c0
-63 -1 -64 -22 -56 -30 11 -37 74 -12 102 28 31 34 23 34 -46z m170 5 l0 -60
-36 0 c-32 0 -35 2 -28 22 7 23 54 98 60 98 2 0 4 -27 4 -60z m-1990 18 l0
-23 -345 3 c-295 2 -345 5 -345 17 0 13 50 15 343 18 188 1 343 3 345 5 1 1 2
-8 2 -20z m1688 14 c7 -5 15 -26 17 -48 l5 -39 -9 35 c-5 18 -17 40 -27 47
-19 14 -7 18 14 5z m59 -29 c-3 -10 -5 -4 -5 12 0 17 2 24 5 18 2 -7 2 -21 0
-30z m871 -610 l2 -643 -65 0 c-37 0 -65 4 -65 10 0 6 19 54 42 108 35 80 42
108 42 162 0 36 -1 272 -2 525 -2 253 -3 465 -2 471 0 6 10 11 23 10 l22 -1 3
-642z m-2516 465 c2 -95 4 -327 6 -515 l3 -343 -26 0 -25 0 0 515 c0 504 0
515 20 515 18 0 19 -9 22 -172z m1749 110 l-9 -33 -1 36 c-1 20 2 39 6 43 13
12 15 -10 4 -46z m-1856 -483 l0 -460 -342 -3 -343 -2 0 463 c0 255 2 466 4
468 2 2 157 2 343 -1 l338 -5 0 -460z m1788 404 c7 -12 5 -27 -9 -54 -26 -52
-44 -57 -44 -11 0 19 -4 38 -10 41 -5 3 -10 15 -10 26 0 17 6 20 31 17 18 -2
36 -10 42 -19z m249 -11 c-7 -7 -12 -31 -12 -55 0 -32 -4 -43 -15 -43 -11 0
-15 12 -15 50 l0 50 -57 1 c-71 0 -43 16 31 17 27 1 51 4 54 7 3 3 10 1 16 -5
7 -7 6 -14 -2 -22z m-409 12 c30 0 46 -4 42 -10 -8 -12 -132 -13 -139 -1 -9
13 7 23 29 17 11 -3 42 -6 68 -6z m219 -56 c-5 -25 -14 -40 -26 -42 -15 -3
-16 -1 -7 16 6 12 16 33 21 48 15 38 22 25 12 -22z m-154 -17 c3 -23 0 -27
-21 -27 -21 0 -23 4 -19 31 6 38 36 36 40 -4z m-88 -7 c0 -11 -4 -20 -10 -20
-5 0 -10 9 -10 20 0 11 5 20 10 20 6 0 10 -9 10 -20z m340 0 c0 -16 -7 -20
-35 -20 -28 0 -35 4 -35 20 0 16 7 20 35 20 28 0 35 -4 35 -20z m-402 -13 c2
-12 -1 -15 -12 -11 -19 7 -22 38 -3 32 6 -3 13 -12 15 -21z m-4806 -27 c5 -35
-5 -56 -22 -45 -9 5 -11 4 -6 -3 5 -8 0 -12 -13 -12 -10 0 -21 3 -24 8 -2 4
-3 2 -1 -5 1 -6 -7 -14 -19 -17 -43 -11 -53 -7 -55 24 -1 17 3 30 8 30 6 0 8
5 4 11 -4 8 1 9 16 4 17 -6 22 -4 18 6 -4 11 3 13 33 11 24 -3 39 0 39 7 0 24
18 9 22 -19z m6083 -42 c59 -65 34 -88 -62 -57 -30 10 -33 14 -33 53 0 24 2
45 5 48 14 13 58 -8 90 -44z m-1125 16 c2 -3 4 -39 5 -82 l0 -77 -92 -3 -93
-3 0 88 0 88 87 -4 c49 -1 90 -5 93 -7z m134 -6 c3 -13 6 -53 6 -90 l0 -68
-45 0 -45 0 0 83 c0 46 3 87 7 90 3 4 21 7 39 7 24 0 33 -5 38 -22z m201 -11
c3 -12 5 -52 3 -87 l-3 -65 -70 0 -70 0 -3 88 -3 87 70 0 c65 0 71 -2 76 -23z
m-5247 -82 c13 -28 17 -301 6 -392 -5 -42 -11 -54 -28 -59 -30 -9 -76 -55 -76
-76 0 -13 -8 -17 -32 -16 -64 1 -227 -90 -314 -177 -42 -43 -82 -134 -68 -156
11 -19 -96 0 -141 25 -22 12 -96 65 -165 117 -69 53 -166 123 -217 157 -51 34
-97 71 -103 82 -9 17 -6 20 32 30 85 21 156 63 241 143 17 15 34 27 39 27 5 0
18 9 30 20 12 11 30 20 40 20 11 0 17 4 14 9 -3 4 16 19 42 32 26 13 50 28 54
33 10 15 122 10 155 -8 l31 -15 53 62 c78 90 139 144 139 122 0 -3 -26 -31
-58 -64 -69 -70 -206 -237 -256 -312 -49 -75 -85 -177 -93 -263 -5 -69 -4 -74
18 -90 l24 -17 8 48 c21 131 29 161 61 227 77 160 229 359 319 418 80 52 177
95 218 97 9 1 21 -10 27 -24z m6008 -39 c38 -13 88 -27 111 -31 24 -4 45 -11
49 -16 3 -5 20 -9 38 -9 43 0 92 -46 154 -146 58 -93 94 -163 134 -259 72
-174 93 -270 65 -306 -16 -21 -93 -69 -110 -69 -8 0 -31 32 -53 72 -33 60 -54
85 -131 148 -51 41 -102 87 -113 102 -37 48 -105 45 -161 -8 -37 -35 -55 -23
-63 39 -12 102 -5 507 9 507 1 0 33 -11 71 -24z m544 8 c36 -8 90 -27 120 -42
62 -29 156 -87 164 -100 3 -5 -15 -28 -39 -52 l-43 -43 -59 51 c-32 28 -87 64
-123 81 -58 28 -75 31 -159 31 l-94 0 44 35 c39 31 82 52 114 54 6 0 39 -6 75
-15z m-7146 -22 c16 -18 13 -21 -61 -54 -43 -19 -108 -58 -145 -85 l-66 -51
-46 47 -47 47 83 42 c114 57 155 70 214 71 37 1 55 -4 68 -17z m5851 -176 c4
-57 4 -117 0 -135 -6 -27 -11 -31 -41 -31 -22 0 -37 6 -40 15 -9 22 -42 18
-49 -5 -5 -15 -15 -20 -40 -20 -25 0 -35 5 -40 20 -7 23 -33 27 -41 5 -9 -22
-41 -18 -47 6 -7 27 -28 20 -45 -14 -17 -34 -67 -38 -77 -7 -6 20 -20 26 -29
12 -2 -4 -25 -6 -50 -4 l-46 4 0 127 c0 70 2 130 4 132 2 2 124 3 269 1 l265
-3 7 -103z m1206 63 c38 -12 79 -30 94 -42 6 -4 42 -31 80 -59 79 -59 99 -77
140 -132 16 -21 51 -53 78 -71 l48 -33 -103 -80 c-57 -44 -116 -91 -133 -106
-16 -14 -33 -26 -36 -26 -13 0 -47 99 -65 190 -18 95 -31 122 -112 235 -16 22
-41 61 -56 88 l-28 47 30 0 c16 0 44 -5 63 -11z m-1232 -303 c-40 -30 -44 -32
-47 -14 -5 29 17 48 56 48 l35 0 -44 -34z m179 13 c17 -27 27 -116 18 -162 -3
-19 -20 -55 -37 -80 l-31 -47 18 -70 c21 -80 15 -101 -32 -111 -16 -4 -37 -10
-46 -14 -16 -6 -16 -4 -1 34 12 30 13 45 6 52 -8 8 -15 4 -25 -15 l-14 -27
-16 50 c-15 46 -14 52 4 92 l19 44 -38 72 -38 72 25 25 c20 21 152 101 170
105 3 1 11 -9 18 -20z m-550 1 c27 1 33 -3 30 -17 -3 -16 -16 -18 -113 -18
l-110 0 -3 -47 c-3 -40 -6 -48 -23 -48 -17 0 -19 7 -19 65 l0 64 83 4 c45 2
91 2 102 -1 11 -2 35 -3 53 -2z m223 -59 c60 -61 94 -119 124 -209 16 -51 16
-56 -5 -155 -12 -56 -28 -113 -37 -125 -23 -37 -25 -19 -3 32 12 25 18 51 15
56 -9 15 -38 12 -61 -5 -29 -22 -34 -18 -34 23 -1 44 -21 75 -46 70 -15 -2
-20 7 -29 48 -5 28 -16 59 -24 68 -19 22 -61 21 -61 -1 0 -10 -9 0 -19 22 -18
40 -18 40 10 124 34 100 42 111 82 111 25 0 43 -12 88 -59z m59 44 c0 -19 -9
-19 -34 0 -19 14 -19 15 7 15 17 0 27 -5 27 -15z m-270 -50 c0 -2 -5 -16 -12
-30 -11 -23 -16 -25 -85 -25 l-73 0 0 30 0 30 85 0 c47 0 85 -2 85 -5z m-4279
-51 c3 -17 4 -46 1 -63 -4 -27 -8 -31 -26 -25 -38 12 -46 25 -46 76 l0 49 32
-3 c27 -2 33 -8 39 -34z m203 -6 c18 -12 43 -36 54 -53 l21 -30 -29 -93 c-17
-50 -30 -107 -30 -126 0 -59 -12 -126 -22 -120 -11 7 -78 -26 -78 -38 0 -5 -5
-8 -11 -8 -6 0 -9 9 -6 19 5 21 -8 49 -19 39 -10 -11 -17 -95 -10 -115 6 -15
8 -15 16 -3 7 11 10 8 10 -14 0 -16 16 -64 36 -108 20 -44 34 -81 32 -84 -3
-2 -31 35 -63 82 -47 69 -60 98 -67 143 -8 59 -3 160 13 274 5 38 7 91 3 117
-4 27 -3 69 0 94 l7 46 55 0 c39 0 64 -6 88 -22z m115 -9 l-21 -30 -29 27
c-16 15 -29 29 -29 31 0 2 23 3 51 3 l50 0 -22 -31z m375 25 c12 -5 16 -21 16
-66 0 -58 -1 -60 -22 -54 -13 4 -45 12 -72 18 l-49 12 -36 -42 c-20 -23 -41
-42 -46 -42 -6 1 -21 10 -34 20 -27 23 -26 25 43 98 60 63 16 56 -49 -8 -47
-46 -54 -50 -78 -41 -15 6 -27 13 -27 15 0 16 25 54 43 67 28 18 275 37 311
23z m-1413 -44 c29 -16 24 -24 -31 -43 -60 -21 -70 -37 -77 -127 -5 -65 -4
-70 21 -95 26 -26 29 -26 44 -11 14 13 14 20 4 36 -17 28 -16 110 2 110 8 0
16 5 18 10 5 15 70 24 112 16 36 -7 36 -8 36 -56 0 -29 -5 -50 -11 -50 -6 0
-43 15 -84 34 -69 32 -73 33 -66 13 5 -13 33 -34 69 -52 l62 -30 0 -80 c0 -44
-3 -97 -6 -117 l-6 -37 -32 24 c-39 30 -121 66 -261 117 -60 21 -115 44 -122
50 -7 6 -13 28 -13 48 0 34 8 47 63 103 73 75 112 103 175 128 55 21 76 23
103 9z m4971 -73 c22 -44 22 -71 -2 -277 -6 -54 -6 -109 0 -150 5 -36 9 -81 9
-100 -1 -30 -3 -27 -15 22 -27 112 -73 177 -165 234 l-59 37 0 122 c0 86 4
126 13 133 19 15 80 4 99 -18 22 -27 30 -25 22 5 -17 69 62 62 98 -8z m906 25
c-3 -20 -24 -83 -48 -139 l-42 -102 -55 0 c-42 0 -71 -7 -114 -29 -33 -16 -59
-27 -59 -25 0 10 24 50 43 71 11 12 15 22 9 22 -6 0 -14 -4 -17 -10 -15 -24
-25 -6 -25 46 0 96 39 139 160 173 25 8 56 17 70 21 14 5 38 9 54 9 27 1 28
-1 24 -37z m-1218 -22 c11 -6 17 -35 21 -97 3 -48 9 -96 14 -105 6 -15 2 -18
-23 -18 -16 0 -41 9 -55 20 -14 11 -30 20 -35 20 -6 0 -22 14 -37 31 -22 27
-25 40 -23 83 3 42 7 53 28 63 30 15 89 17 110 3z m-1300 -15 c0 -13 -46 -15
-350 -15 -304 0 -350 2 -350 15 0 13 46 15 350 15 304 0 350 -2 350 -15z
m-2717 -16 c59 -10 68 -14 73 -35 4 -14 3 -42 0 -62 -4 -20 -10 -64 -12 -97
-7 -88 -6 -87 -59 -67 -36 13 -51 26 -72 62 -14 25 -36 59 -48 76 -14 18 -26
52 -30 85 l-7 55 44 -4 c23 -1 73 -8 111 -13z m485 -50 c56 -56 73 -98 75
-177 2 -99 -11 -303 -22 -337 -7 -21 -8 1 -4 70 5 91 4 105 -17 145 -29 57
-60 80 -60 45 0 -8 -6 -12 -14 -9 -10 4 -16 -7 -21 -43 -6 -45 -24 -94 -25
-67 0 7 -16 35 -35 64 -26 39 -35 63 -35 94 0 61 19 154 42 209 27 63 59 65
116 6z m273 -8 c43 -27 91 -87 96 -120 4 -30 -29 -87 -85 -145 -32 -34 -77
-92 -101 -129 -47 -73 -61 -74 -61 -7 0 20 -4 40 -10 46 -6 6 -4 27 5 58 18
59 19 126 4 215 l-12 65 29 23 c39 31 81 29 135 -6z m3685 -80 c-3 -47 -10
-99 -14 -116 l-9 -30 -12 39 c-22 65 1 218 30 200 8 -5 10 -33 5 -93z m-1288
-11 c195 -14 262 -21 267 -29 2 -4 -33 -13 -79 -19 -45 -7 -110 -22 -145 -33
-51 -18 -67 -19 -84 -10 -33 18 -135 114 -114 107 10 -3 80 -10 155 -16z m715
8 c20 -11 15 -13 -48 -23 -70 -10 -81 -7 -84 28 -1 12 109 8 132 -5z m-4004
-50 c17 -29 29 -53 28 -55 -2 -1 -19 2 -38 7 -18 5 -60 15 -91 21 -57 10 -58
11 -58 45 l0 34 65 0 65 0 29 -52z m1801 22 c0 -20 1 -20 33 -3 28 15 58 17
252 14 121 -1 222 -4 224 -6 2 -2 -21 -7 -50 -12 l-54 -7 65 -8 c36 -3 128 -2
205 4 196 15 376 -1 445 -38 21 -11 -35 -13 -374 -14 -382 0 -576 10 -576 31
0 18 -63 8 -106 -17 -33 -20 -54 -25 -82 -21 -58 7 -242 59 -242 69 0 4 21 9
48 9 26 1 61 5 77 9 17 4 54 8 83 9 46 1 52 -1 52 -19z m1291 3 c32 -27 69
-67 69 -75 0 -15 -49 -8 -122 18 -40 14 -102 34 -138 44 l-65 18 50 4 c125 11
184 8 206 -9z m-1943 -39 c31 -9 28 -21 -10 -40 -18 -9 -52 -32 -75 -51 -41
-34 -42 -34 -53 -13 -9 17 -9 29 1 51 21 52 70 71 137 53z m4488 -23 c-4 -5
12 -7 36 -4 35 5 40 4 35 -10 -4 -10 0 -17 11 -20 13 -4 11 -5 -5 -6 -12 0
-23 -5 -25 -9 -2 -7 -28 -18 -125 -59 -9 -4 -13 8 -13 40 0 68 6 77 52 77 21
0 37 -4 34 -9z m-1871 -15 c101 -21 131 -31 186 -67 64 -40 185 -171 226 -243
l32 -56 -27 6 c-31 7 -160 52 -247 85 -48 19 -80 23 -160 24 -146 0 -184 -15
-395 -164 -18 -12 -21 -10 -39 31 -42 98 -38 189 11 263 79 119 220 160 413
121z m347 -15 c28 -32 44 -70 52 -121 3 -19 20 -64 37 -100 34 -72 30 -71 -23
10 -21 31 -73 92 -117 138 -87 89 -88 101 -9 102 28 0 42 -7 60 -29z m-2518
-3 c22 -6 45 -15 51 -20 5 -4 17 -8 27 -8 10 0 18 -3 18 -8 0 -4 14 -13 31
-21 78 -34 62 -96 -66 -256 l-90 -112 -56 38 c-152 103 -249 128 -371 96 -32
-8 -58 -13 -58 -11 0 3 8 21 19 42 11 21 16 45 12 56 -7 17 -8 17 -23 -6 -9
-13 -39 -50 -68 -81 -51 -56 -53 -57 -107 -57 l-54 0 23 42 c23 42 64 85 174
180 72 63 109 82 214 114 30 9 60 17 65 19 27 9 223 4 259 -7z m2674 -23 c47
-41 91 -113 127 -210 30 -78 28 -93 -3 -32 -12 23 -22 36 -22 29 0 -24 -17 -3
-65 77 -25 44 -59 96 -76 117 -51 64 -28 76 39 19z m962 22 c0 -6 -4 -27 -9
-44 -6 -21 -6 -35 0 -39 13 -7 56 32 65 58 7 22 80 25 109 4 16 -11 17 -19 9
-56 l-9 -43 -100 -34 c-55 -18 -128 -42 -161 -52 -34 -10 -86 -35 -115 -55
-30 -20 -58 -36 -62 -36 -5 0 14 29 42 65 29 36 51 71 50 78 -9 68 44 140 114
155 59 14 67 14 67 -1z m244 -2 c-7 -17 -30 -20 -38 -6 -4 5 0 12 6 14 25 10
37 7 32 -8z m-5520 -30 c45 -14 112 -42 150 -63 60 -32 74 -45 97 -90 15 -30
23 -55 17 -58 -19 -12 -75 7 -133 45 -33 22 -62 38 -64 35 -9 -9 52 -62 109
-95 52 -30 80 -61 80 -89 0 -18 -110 -11 -138 8 -15 10 -59 36 -98 56 -57 31
-75 47 -94 83 -37 69 -47 193 -17 193 6 0 47 -11 91 -25z m3184 -11 c25 -4 32
-10 32 -28 0 -26 21 -36 78 -36 l34 0 -7 -52 c-12 -103 -15 -110 -38 -104 -12
3 -76 13 -142 22 -156 21 -347 14 -460 -16 -147 -39 -325 -139 -325 -183 0 -8
12 -27 27 -42 27 -26 29 -27 115 -20 70 6 99 4 144 -11 47 -14 57 -15 64 -3
24 37 -55 62 -188 58 -101 -3 -124 7 -86 37 38 29 182 92 264 115 74 20 106
23 250 23 165 -1 288 -17 347 -46 28 -14 78 -100 70 -121 -3 -8 -44 -44 -91
-81 l-85 -67 -143 47 c-219 71 -268 102 -268 167 0 33 -19 32 -36 -2 -29 -58
12 -88 244 -182 116 -47 166 -72 164 -82 -1 -8 12 -20 30 -28 54 -22 207 -127
310 -213 55 -44 122 -98 150 -118 50 -37 51 -38 22 -38 -16 0 -108 -13 -204
-29 -504 -84 -677 -102 -1012 -102 -302 -1 -402 10 -613 62 -128 32 -290 76
-315 85 -15 6 185 66 261 79 61 11 56 25 -9 25 -53 0 -266 -37 -317 -56 -40
-14 0 12 55 36 30 14 92 47 138 75 148 90 165 98 221 112 79 18 501 17 554 -1
32 -12 47 -12 95 0 31 7 102 13 157 14 126 0 175 8 175 28 0 12 -22 13 -162 7
-190 -8 -183 -8 -486 1 -188 5 -232 8 -228 19 7 19 -13 33 -74 51 -38 11 -77
36 -137 86 -45 39 -83 77 -83 85 0 20 63 123 89 147 19 18 21 17 49 -3 39 -27
124 -49 248 -63 109 -12 169 -6 178 18 8 20 0 22 -141 28 -139 6 -163 14 -163
55 0 19 -8 34 -24 44 -19 13 -25 28 -30 74 -4 32 -9 66 -12 75 -4 12 8 23 42
41 l47 24 596 -4 c328 -2 611 -6 629 -9z m1359 -6 c-3 -8 -6 -5 -6 6 -1 11 2
17 5 13 3 -3 4 -12 1 -19z m499 -40 c-14 -30 -36 -60 -50 -67 -13 -7 -36 -40
-52 -72 -35 -75 -61 -101 -40 -41 8 22 21 54 30 70 9 17 16 39 16 49 0 10 18
31 40 46 22 16 48 39 58 52 27 36 26 22 -2 -37z m-4845 35 c13 -15 12 -15 -8
-4 -24 12 -29 21 -14 21 5 0 15 -7 22 -17z m438 -71 c-3 -93 -17 -112 -18 -24
-1 53 3 81 9 77 6 -3 9 -27 9 -53z m391 44 c0 -8 -22 -43 -48 -78 -27 -35 -67
-90 -89 -123 -45 -67 -95 -117 -59 -60 78 125 181 275 188 275 4 0 8 -6 8 -14z
m3527 -18 c-3 -8 -6 -5 -6 6 -1 11 2 17 5 13 3 -3 4 -12 1 -19z m92 -73 c-29
-97 -36 -91 -9 9 11 41 20 79 21 83 0 5 3 2 6 -4 2 -7 -5 -47 -18 -88z m-4992
23 c-2 -13 -4 -3 -4 22 0 25 2 35 4 23 2 -13 2 -33 0 -45z m1013 16 c0 -21 -4
-33 -10 -29 -5 3 -10 22 -10 41 0 21 4 33 10 29 6 -3 10 -22 10 -41z m-175
-73 c4 -54 3 -81 -4 -77 -16 10 -23 63 -16 117 4 28 8 49 10 47 2 -2 6 -41 10
-87z m-1320 61 c-3 -3 -11 0 -18 7 -9 10 -8 11 6 5 10 -3 15 -9 12 -12z m60
-12 c-3 -5 -14 -10 -23 -10 -15 0 -15 2 -2 10 20 13 33 13 25 0z m5101 -97
c-5 -5 -36 50 -36 64 0 4 9 -7 21 -26 11 -18 18 -35 15 -38z m-4966 43 c0 -2
-9 -6 -20 -9 -11 -3 -20 -1 -20 4 0 5 9 9 20 9 11 0 20 -2 20 -4z m1187 -28
c-3 -8 -6 -5 -6 6 -1 11 2 17 5 13 3 -3 4 -12 1 -19z m4787 16 c26 -10 18 -27
-28 -61 -41 -30 -50 -32 -152 -37 -105 -5 -108 -4 -85 12 27 19 102 41 141 42
14 0 38 11 54 25 30 26 43 29 70 19z m-734 -91 c-11 -17 -11 -17 -6 0 3 10 7
28 7 40 2 22 2 22 6 0 2 -12 -1 -30 -7 -40z m-5072 9 c-24 -5 -23 -18 2 -25
11 -3 18 -1 15 4 -4 5 8 7 25 5 30 -3 55 -16 31 -16 -7 0 -10 -4 -6 -10 3 -5
13 -6 22 -3 12 5 15 2 10 -9 -4 -11 -1 -14 11 -11 10 2 27 -5 39 -16 12 -12
26 -21 30 -21 17 0 59 -46 68 -75 l10 -30 130 -6 c72 -4 195 -7 275 -8 80 -1
165 -6 190 -13 99 -24 347 -9 385 24 5 4 17 8 27 8 10 0 18 5 18 10 0 6 7 10
15 10 8 0 29 8 47 18 104 57 266 102 372 102 57 0 152 -28 230 -67 122 -62
347 -247 325 -267 -2 -2 -20 -13 -39 -24 -19 -11 -66 -39 -105 -62 -267 -164
-603 -252 -1015 -266 -140 -5 -190 -3 -250 10 -81 17 -193 66 -266 117 -119
81 -458 395 -450 415 3 9 -1 11 -11 7 -11 -4 -14 -2 -9 5 5 8 -1 12 -16 13
-22 0 -22 1 -3 9 20 9 7 15 -22 11 -7 -1 -10 5 -7 13 4 11 0 13 -18 10 -13 -2
-17 -2 -10 2 20 10 13 22 -10 18 -13 -2 -17 -2 -10 2 21 10 13 26 -10 19 -23
-7 -23 -7 -3 9 18 14 18 15 3 16 -10 0 -18 5 -18 10 0 6 -8 10 -17 10 -14 0
-15 2 -5 9 10 6 10 10 -2 20 -12 10 -13 16 -3 26 6 7 19 10 27 7 12 -5 12 -7
-2 -10z m4767 -8 c9 -15 12 -23 6 -20 -11 7 -35 46 -28 46 3 0 12 -12 22 -26z
m-3995 -24 c0 -5 -4 -10 -10 -10 -5 0 -10 5 -10 10 0 6 5 10 10 10 6 0 10 -4
10 -10z m3630 -1 c58 -9 148 -35 205 -59 11 -4 47 -18 80 -31 33 -12 65 -25
70 -29 6 -4 19 -10 30 -13 11 -3 51 -17 89 -31 117 -43 249 -45 451 -4 28 5
122 13 210 18 187 9 284 19 291 31 3 5 18 9 35 9 16 0 29 5 29 10 0 6 5 10 11
10 6 0 17 7 26 15 8 8 19 13 24 9 5 -3 8 0 7 8 -2 7 3 12 10 10 8 -1 11 2 8 7
-9 13 19 32 38 25 12 -5 15 -2 9 12 -4 12 -3 15 5 10 7 -4 10 -17 6 -33 -4
-16 -3 -24 3 -20 12 7 10 -29 -2 -40 -4 -5 -5 -2 0 6 5 9 4 12 -2 8 -6 -4 -9
-18 -8 -32 2 -14 -1 -25 -6 -25 -19 0 -98 -88 -166 -185 -137 -195 -352 -341
-561 -381 -142 -27 -478 -13 -735 31 -265 46 -425 109 -654 258 -94 62 -172
114 -172 117 -1 3 23 24 52 45 28 22 54 43 55 48 2 4 10 7 18 7 8 0 14 5 14
10 0 6 7 10 15 10 8 0 15 5 15 10 0 6 7 10 15 10 8 0 15 5 15 10 0 6 7 10 15
10 8 0 15 3 15 8 0 4 10 12 23 18 12 6 47 24 77 40 70 38 119 53 200 63 36 5
67 9 70 10 3 0 34 -4 70 -10z m523 -57 c38 -16 106 -15 157 3 60 21 62 11 3
-11 -89 -35 -196 -16 -224 39 l-12 22 24 -21 c13 -11 37 -26 52 -32z m-3673
-22 c-25 -16 -90 -22 -138 -14 -45 8 -43 9 43 15 50 3 95 6 100 7 6 1 3 -3 -5
-8z m2990 -580 c29 -15 171 -60 190 -60 11 0 20 -4 20 -10 0 -13 -144 -13
-193 1 -21 6 -60 31 -90 59 l-52 50 55 -16 c30 -9 62 -20 70 -24z m-2238 -69
c68 -29 373 -110 480 -127 128 -21 535 -29 730 -15 86 6 248 25 360 42 351 51
489 69 544 69 237 0 -257 -156 -736 -232 -189 -30 -548 -32 -700 -5 -203 38
-452 105 -773 211 -178 59 -189 65 -112 67 33 0 80 6 105 13 25 6 47 8 50 4 3
-4 26 -16 52 -27z"/>
<path d="M3850 7515 c0 -14 -7 -40 -16 -58 l-17 -32 38 39 c30 30 36 42 28 54
-16 27 -33 26 -33 -3z"/>
<path d="M3475 7270 c-9 -14 3 -30 31 -40 33 -13 54 -2 54 26 0 21 -5 24 -39
24 -22 0 -43 -4 -46 -10z"/>
<path d="M3246 7172 c-11 -18 24 -50 49 -47 36 3 41 12 20 35 -18 20 -59 27
-69 12z"/>
<path d="M3390 6920 c0 -13 5 -20 13 -17 6 2 12 10 12 17 0 7 -6 15 -12 18 -8
2 -13 -5 -13 -18z"/>
<path d="M3183 6834 c-8 -20 8 -36 26 -25 15 10 8 41 -9 41 -6 0 -13 -7 -17
-16z"/>
<path d="M2830 6740 c0 -20 37 -60 77 -81 20 -11 26 -10 39 2 13 13 9 20 -37
57 -57 46 -79 52 -79 22z"/>
<path d="M2994 6718 l-29 -33 33 29 c30 28 37 36 29 36 -2 0 -16 -15 -33 -32z"/>
<path d="M3446 6641 c-9 -14 5 -42 18 -38 15 5 14 39 -1 44 -6 2 -14 0 -17 -6z"/>
<path d="M2740 6545 c0 -35 74 -89 101 -74 11 5 19 12 19 14 0 8 -101 85 -111
85 -5 0 -9 -11 -9 -25z"/>
<path d="M3131 6496 c-17 -20 -2 -48 23 -44 24 3 34 37 14 49 -18 12 -24 11
-37 -5z"/>
<path d="M2679 6314 c-18 -20 -56 -49 -84 -64 -36 -22 -45 -31 -33 -35 9 -4
30 0 46 9 42 21 132 126 109 126 -2 0 -19 -16 -38 -36z"/>
<path d="M4921 7215 c-367 -80 -600 -299 -675 -635 -32 -144 -29 -301 7 -308
15 -3 17 5 17 70 0 241 84 455 239 608 141 139 286 201 554 235 47 6 64 26 31
39 -25 10 -104 5 -173 -9z"/>
<path d="M5960 6898 c-22 -7 -66 -43 -117 -95 -117 -120 -203 -152 -317 -119
-44 13 -69 29 -109 69 -29 29 -62 66 -73 82 -12 17 -25 27 -28 24 -14 -14 38
-101 85 -143 74 -66 111 -81 204 -81 104 0 139 17 235 116 97 100 129 119 201
119 102 0 157 -64 183 -211 12 -73 13 -73 20 -34 8 48 -7 136 -33 185 -29 56
-90 93 -158 96 -32 2 -74 -2 -93 -8z"/>
<path d="M5029 5430 c-17 -10 -129 -143 -129 -153 0 -19 49 15 93 64 28 33 55
59 59 59 4 0 24 -22 45 -50 45 -61 65 -66 28 -7 -14 23 -31 54 -38 70 -12 28
-30 33 -58 17z"/>
<path d="M7566 4833 c-6 -14 -5 -15 5 -6 7 7 10 15 7 18 -3 3 -9 -2 -12 -12z"/>
<path d="M3073 4270 c-11 -16 -10 -18 4 -13 11 4 27 -6 50 -33 41 -49 43 -31
3 24 -34 48 -40 50 -57 22z"/>
<path d="M4782 3998 c-14 -14 -16 -48 -4 -48 5 0 17 9 27 20 17 19 31 20 290
20 272 0 273 0 288 -22 26 -39 58 -69 68 -63 10 7 12 49 3 83 l-6 22 -327 0
c-241 0 -330 -3 -339 -12z"/>
<path d="M2768 3610 c-4 -540 -3 -706 5 -732 l7 -28 310 0 c301 0 310 1 320
20 13 24 5 959 -7 971 -5 5 -149 9 -321 11 l-312 3 -2 -245z m102 174 c0 -15
-10 -17 -34 -8 -27 10 -19 32 9 26 14 -2 25 -11 25 -18z m326 -9 c-5 -19 -13
-25 -35 -25 -22 0 -30 5 -33 24 -5 22 -1 25 31 28 45 4 45 4 37 -27z m100 6
c-15 -16 -37 -31 -47 -34 -15 -4 -19 0 -19 23 0 26 4 29 38 33 20 2 41 4 46 5
6 1 -3 -11 -18 -27z m-313 -3 c4 -12 5 -24 3 -26 -9 -9 -58 12 -67 29 -9 17
-6 19 24 19 27 0 36 -5 40 -22z m117 -3 c0 -22 -4 -25 -35 -25 -31 0 -35 3
-35 25 0 22 4 25 35 25 31 0 35 -3 35 -25z m265 -72 c0 -98 0 -98 -25 -98 -18
0 -26 6 -28 22 -3 22 -4 22 -28 7 -23 -16 -33 -8 -16 12 5 5 15 25 22 44 10
26 67 110 74 110 1 0 1 -44 1 -97z m-508 35 c6 -7 13 -31 17 -53 4 -22 9 -48
12 -57 4 -15 -1 -18 -30 -18 l-36 0 0 70 c0 53 3 70 14 70 7 0 18 -6 23 -12z
m76 -40 c38 -66 42 -88 18 -88 -11 0 -25 9 -31 20 -12 22 -26 110 -17 110 3 0
16 -19 30 -42z m56 22 c4 0 8 -16 9 -35 2 -19 1 -35 -2 -35 -6 0 -46 65 -46
75 0 4 7 4 16 1 9 -3 19 -6 23 -6z m101 -39 c0 -31 -4 -41 -20 -46 -11 -3 -20
-11 -20 -16 0 -5 -4 -9 -10 -9 -5 0 -10 25 -10 55 0 54 0 55 30 55 28 0 30 -2
30 -39z m99 2 c0 -21 -4 -47 -9 -58 -7 -18 -10 -16 -24 17 -24 55 -21 78 9 78
22 0 25 -4 24 -37z m66 5 c-9 -30 -35 -71 -41 -65 -11 11 17 87 32 87 11 0 14
-6 9 -22z m-108 -104 c16 -24 16 -28 -2 -60 -23 -43 -41 -43 -62 0 -15 32 -15
37 1 60 21 33 41 33 63 0z m-199 -16 c-3 -7 -30 -17 -62 -22 -46 -8 -59 -7
-66 4 -15 24 -1 30 66 30 48 0 65 -3 62 -12z m82 -7 c0 -17 -3 -18 -30 -8 -16
6 -30 15 -30 19 0 4 14 8 30 8 23 0 30 -5 30 -19z m263 12 c-7 -2 -21 -2 -30
0 -10 3 -4 5 12 5 17 0 24 -2 18 -5z m4 -19 c-12 -12 -87 -16 -87 -5 0 6 20
11 47 11 25 0 44 -3 40 -6z m66 -1 c-7 -2 -19 -2 -25 0 -7 3 -2 5 12 5 14 0
19 -2 13 -5z m7 -53 c0 -23 -4 -30 -20 -30 -20 0 -25 15 -14 44 11 28 34 18
34 -14z m-336 -5 c3 -9 6 -20 6 -23 0 -4 -47 -6 -105 -4 -94 3 -105 5 -105 21
0 17 11 19 99 20 83 2 100 -1 105 -14z m225 -1 c2 -2 -4 -5 -15 -6 -10 0 1 -4
26 -8 40 -6 36 -7 -33 -8 -75 -2 -77 -1 -65 18 10 16 19 19 48 14 19 -4 37 -8
39 -10z m-126 -53 c4 -1 7 -41 7 -91 l0 -90 -45 0 -45 0 0 88 c0 49 3 92 6 95
4 4 21 5 38 2 17 -2 34 -4 39 -4z m-127 -93 c0 -46 -4 -84 -8 -85 -5 -2 -48
-3 -98 -3 l-90 0 0 85 0 85 99 0 99 0 -2 -82z m364 -8 l0 -90 -95 0 -95 0 0
83 c0 46 3 87 7 90 3 4 46 7 95 7 l88 0 0 -90z m-10 -290 l0 -160 -269 0
c-236 0 -270 2 -275 16 -3 9 -6 81 -6 160 l0 144 275 0 275 0 0 -160z"/>
<path d="M5125 3438 c-65 -36 -97 -91 -97 -165 0 -166 207 -225 302 -86 75
109 -5 263 -136 263 -27 0 -58 -6 -69 -12z m141 -82 c28 -28 34 -42 34 -75 0
-87 -59 -136 -134 -111 -46 15 -67 41 -73 90 -7 50 10 86 52 112 46 28 82 23
121 -16z"/>
<path d="M4870 2267 c-52 -18 -80 -40 -89 -73 -16 -58 17 -76 44 -23 21 39 65
57 144 60 69 3 86 14 45 29 -45 17 -107 20 -144 7z"/>
<path d="M4655 8379 c-340 -34 -799 -163 -1187 -332 -140 -61 -197 -92 -388
-210 -47 -29 -96 -59 -110 -67 -14 -8 -27 -18 -30 -21 -3 -3 -33 -24 -67 -47
-34 -23 -91 -64 -125 -90 -35 -26 -93 -67 -131 -92 -71 -48 -80 -60 -44 -60
39 0 170 79 251 152 36 33 242 176 331 231 353 216 940 422 1395 488 136 20
195 23 485 23 357 1 437 -6 690 -55 178 -35 261 -59 635 -183 373 -123 660
-229 765 -283 48 -24 135 -98 135 -115 0 -5 -22 3 -50 17 -27 14 -55 25 -62
25 -22 0 105 -71 142 -79 48 -11 133 -65 249 -160 87 -71 119 -95 281 -209 33
-23 60 -49 60 -57 0 -7 -15 -23 -33 -34 -18 -11 -41 -29 -50 -39 -15 -16 -15
-21 -4 -31 11 -8 19 -6 38 10 58 51 67 54 97 28 15 -13 29 -25 32 -27 3 -2 -5
-11 -16 -20 -29 -23 -59 -72 -45 -72 6 0 32 21 56 47 36 37 42 49 31 55 -8 5
-21 14 -28 21 -7 7 -21 16 -31 20 -10 4 -16 11 -12 17 8 14 -36 76 -76 106
-19 14 -55 36 -81 50 -26 13 -53 32 -60 43 -24 33 -232 197 -339 267 -57 37
-126 87 -154 111 -96 84 -269 156 -795 330 -418 138 -563 179 -790 219 -147
26 -174 27 -515 30 -198 1 -400 -2 -450 -7z"/>
<path d="M4590 8000 c-118 -15 -210 -39 -434 -114 -238 -80 -355 -126 -481
-189 -225 -112 -503 -284 -660 -407 -73 -57 -175 -118 -175 -105 0 3 7 17 16
30 21 32 1 33 -29 2 -264 -276 -455 -491 -563 -632 -123 -162 -358 -515 -433
-650 -110 -200 -223 -510 -265 -730 -51 -264 -62 -574 -19 -531 4 3 10 75 14
159 10 205 24 310 60 452 70 279 172 524 312 750 70 113 272 412 337 499 159
213 468 536 565 592 65 37 131 83 207 144 79 63 206 150 333 227 273 165 486
263 798 367 290 96 383 111 645 102 108 -4 312 -11 452 -16 271 -9 313 -14
540 -60 268 -55 457 -119 675 -227 338 -169 540 -290 735 -442 57 -44 106 -78
109 -75 11 11 -145 148 -255 226 -137 96 -560 326 -740 401 -255 107 -721 205
-990 208 -60 0 -185 4 -279 9 -309 16 -409 18 -475 10z"/>
<path d="M6965 7509 c-4 -6 -5 -11 -4 -12 85 -45 174 -110 305 -225 49 -43
102 -84 117 -92 16 -8 70 -57 121 -110 82 -86 144 -160 400 -479 129 -161 284
-408 375 -596 118 -246 200 -492 299 -905 22 -90 3 88 -23 215 -42 209 -180
599 -264 749 -15 28 -52 94 -80 146 -71 128 -183 294 -278 412 -336 415 -437
522 -680 712 -198 157 -276 206 -288 185z"/>
<path d="M1817 7093 c-12 -11 -8 -23 8 -23 8 0 15 7 15 15 0 16 -12 20 -23 8z"/>
<path d="M2149 6993 c15 -28 70 -77 78 -70 4 4 -11 25 -32 47 -41 42 -62 52
-46 23z"/>
<path d="M7277 6908 c136 -139 224 -244 405 -483 133 -175 271 -407 362 -606
l35 -77 -37 -26 c-23 -16 -31 -26 -20 -26 9 0 19 4 22 9 3 5 15 11 26 14 25 6
39 -18 135 -248 80 -189 153 -409 192 -575 15 -66 30 -120 34 -120 29 0 -61
351 -156 604 -81 215 -274 620 -384 803 -160 269 -483 666 -644 794 -85 68
-73 42 30 -63z"/>
<path d="M2059 6950 c-1 -5 -2 -13 -3 -17 -1 -5 19 -27 44 -50 34 -31 50 -39
60 -33 12 8 4 20 -39 60 -59 54 -60 55 -62 40z"/>
<path d="M7541 6793 c246 -252 442 -540 654 -963 144 -286 218 -495 270 -755
24 -121 25 -125 35 -125 24 0 -4 175 -56 355 -97 333 -404 926 -642 1240 -84
110 -215 256 -279 311 -113 95 -103 60 18 -63z"/>
<path d="M2598 6803 c-35 -43 -80 -98 -99 -123 -19 -25 -55 -70 -80 -100 -212
-255 -389 -541 -548 -887 -105 -227 -206 -522 -226 -657 -12 -78 12 -53 40 42
95 322 148 457 280 723 148 298 225 422 410 664 67 88 156 205 197 260 42 55
85 109 97 119 24 22 27 36 8 36 -8 0 -43 -35 -79 -77z"/>
<path d="M7031 6856 c-23 -13 -23 -13 15 -19 43 -7 49 -4 41 18 -8 18 -24 19
-56 1z"/>
<path d="M8449 6505 c-8 -8 -39 -23 -68 -34 -44 -15 -50 -20 -33 -25 38 -12
132 22 132 49 0 21 -15 26 -31 10z"/>
<path d="M7071 6357 c-17 -17 -13 -44 6 -51 20 -8 44 19 37 39 -8 19 -30 25
-43 12z"/>
<path d="M1522 6270 c-65 -99 -112 -195 -112 -229 0 -37 42 -86 66 -77 20 8
17 24 -6 31 -13 4 -20 15 -20 31 0 26 100 234 112 234 4 0 20 -14 35 -31 33
-37 102 -74 114 -62 5 5 -19 30 -52 57 -33 27 -68 60 -76 73 -8 12 -18 23 -22
23 -3 0 -21 -22 -39 -50z"/>
<path d="M1505 6100 c3 -5 15 -10 26 -10 23 0 24 -9 3 -54 -19 -38 -15 -60 15
-76 18 -9 25 -4 61 41 22 28 40 55 40 60 0 5 -20 14 -45 20 -25 6 -48 15 -51
20 -3 5 -16 9 -30 9 -14 0 -22 -4 -19 -10z m84 -54 c9 -11 10 -20 1 -36 -19
-36 -52 -5 -36 36 7 18 20 18 35 0z"/>
<path d="M1403 5913 c-18 -4 -27 -18 -43 -76 -12 -40 -28 -92 -36 -116 -7 -25
-14 -54 -14 -65 1 -21 1 -21 16 -1 8 11 19 26 24 34 6 12 15 9 45 -18 47 -41
83 -55 101 -40 22 18 17 27 -22 39 -48 16 -104 67 -104 94 1 36 36 102 68 125
24 17 36 19 55 12 53 -21 73 -85 37 -121 -35 -35 -89 -1 -103 65 -3 12 -5 6
-6 -13 -1 -25 7 -41 28 -63 37 -36 65 -37 97 -2 83 89 0 174 -143 146z"/>
<path d="M8879 5806 c26 -28 31 -31 31 -17 0 5 -12 17 -27 26 l-28 18 24 -27z"/>
<path d="M940 5758 c-6 -24 -18 -65 -25 -93 -14 -52 -39 -180 -49 -253 -6 -38
-4 -43 11 -40 13 2 21 28 39 128 11 69 29 157 38 197 18 83 20 103 6 103 -5 0
-14 -19 -20 -42z"/>
<path d="M7790 5720 c0 -27 3 -31 23 -28 16 2 22 10 22 28 0 18 -6 26 -22 28
-20 3 -23 -1 -23 -28z"/>
<path d="M9200 5747 c0 -2 9 -30 21 -63 11 -32 33 -110 49 -172 29 -116 35
-131 47 -119 16 17 -50 282 -83 335 -12 18 -34 31 -34 19z"/>
<path d="M8870 5694 c-26 -9 -90 -37 -90 -40 0 -1 3 -9 6 -18 9 -24 27 -20 62
14 18 17 39 30 47 30 9 0 13 5 10 10 -7 11 -11 11 -35 4z"/>
<path d="M1266 5589 c-25 -85 -72 -431 -79 -571 -3 -68 0 -88 10 -88 7 0 15
17 19 40 4 24 12 40 20 40 7 0 30 -26 51 -57 48 -71 63 -78 63 -25 0 43 -8 53
-66 82 l-39 19 39 16 c21 9 48 14 58 12 22 -6 24 -1 32 66 4 33 2 47 -7 47 -9
0 -104 43 -126 56 -6 5 11 104 19 104 4 0 18 -11 31 -24 13 -13 39 -31 57 -40
21 -11 32 -24 32 -39 0 -20 2 -19 17 8 16 29 19 44 42 193 6 41 16 83 22 94 6
11 8 22 6 25 -5 4 -112 35 -174 50 -14 3 -24 0 -27 -8z m62 -36 c21 -5 23 -10
17 -40 -6 -32 -5 -34 14 -23 12 6 21 17 21 25 0 17 14 19 39 6 11 -6 17 -19
15 -33 -1 -13 -3 -31 -3 -41 -1 -16 -8 -17 -63 -11 -95 10 -95 10 -85 72 5 28
12 52 15 52 4 0 18 -3 30 -7z m29 -155 l65 -12 -7 -35 c-4 -20 -9 -39 -11 -43
-10 -16 -57 -7 -100 18 -36 21 -44 31 -44 55 0 34 4 34 97 17z m-58 -237 c40
-20 62 -68 40 -82 -16 -10 -70 -12 -93 -3 -11 4 -16 18 -16 43 0 54 10 82 24
70 6 -5 27 -18 45 -28z"/>
<path d="M875 5305 c-4 -30 -4 -116 0 -190 6 -124 16 -161 34 -139 12 16 -3
377 -16 381 -7 3 -14 -16 -18 -52z"/>
<path d="M8879 5326 c-12 -6 -29 -21 -37 -34 l-15 -23 36 21 c45 27 77 23 97
-12 13 -25 13 -31 0 -55 -21 -38 -54 -41 -85 -7 -32 34 -43 25 -19 -15 21 -35
44 -46 77 -35 39 12 57 35 57 74 0 67 -59 113 -111 86z"/>
<path d="M9267 5173 c-12 -12 -7 -43 7 -43 13 0 26 20 26 41 0 10 -23 12 -33
2z"/>
<path d="M8933 4998 c4 -18 9 -73 13 -121 6 -73 10 -87 23 -85 13 3 15 16 13
83 -5 110 -14 149 -36 153 -16 3 -18 -1 -13 -30z"/>
<path d="M1172 4853 c-12 -31 -8 -602 5 -708 7 -55 23 -184 35 -287 15 -131
26 -188 34 -188 7 0 15 4 18 9 3 5 -3 76 -14 157 -33 249 -49 430 -56 637 l-7
197 39 0 c56 0 62 -10 53 -83 -9 -75 4 -316 31 -567 30 -269 38 -310 61 -310
15 0 18 5 14 23 -3 12 -16 101 -30 197 -30 215 -49 508 -42 653 5 105 -2 132
-26 108 -6 -6 -28 -11 -49 -11 l-39 0 3 67 c2 40 8 68 15 70 8 3 10 -6 6 -30
-3 -20 -1 -37 6 -41 7 -5 11 4 11 25 0 27 3 30 20 25 11 -3 29 -9 40 -12 15
-5 20 -2 20 14 0 13 -9 22 -27 27 -14 3 -38 15 -51 26 -31 24 -60 25 -70 2z"/>
<path d="M8970 4760 c0 -11 -7 -23 -15 -26 -18 -7 -20 -31 -3 -36 19 -7 22
-147 9 -412 -11 -218 -22 -364 -37 -483 -5 -45 -4 -53 10 -53 8 0 18 10 21 23
26 119 59 759 45 882 -5 52 -10 101 -10 110 0 8 -4 15 -10 15 -5 0 -10 -9 -10
-20z"/>
<path d="M816 4345 c12 -79 105 -500 115 -520 7 -15 8 -6 5 35 -6 80 -97 487
-113 508 -12 15 -13 12 -7 -23z"/>
<path d="M1376 3471 c-21 -23 -14 -41 15 -41 20 0 25 24 11 48 -7 9 -13 8 -26
-7z"/>
<path d="M1848 2188 c9 -9 15 -9 24 0 9 9 7 12 -12 12 -19 0 -21 -3 -12 -12z"/>
</g>
</svg>
